<?xml version="1.0" encoding="UTF-8" standalone="no"?>
<!-- Created with Inkscape (http://www.inkscape.org/) -->

<svg
   width="61.008228mm"
   height="10.406902mm"
   viewBox="0 0 61.008228 10.406902"
   version="1.1"
   id="svg994"
   inkscape:version="1.1.2 (0a00cf5339, 2022-02-04)"
   sodipodi:docname="logo wide.svg"
   xmlns:inkscape="http://www.inkscape.org/namespaces/inkscape"
   xmlns:sodipodi="http://sodipodi.sourceforge.net/DTD/sodipodi-0.dtd"
   xmlns="http://www.w3.org/2000/svg"
   xmlns:svg="http://www.w3.org/2000/svg"
   xmlns:rdf="http://www.w3.org/1999/02/22-rdf-syntax-ns#"
   xmlns:cc="http://creativecommons.org/ns#"
   xmlns:dc="http://purl.org/dc/elements/1.1/">
  <defs
     id="defs988" />
  <sodipodi:namedview
     id="base"
     pagecolor="#ffffff"
     bordercolor="#666666"
     borderopacity="1.0"
     inkscape:pageopacity="0.0"
     inkscape:pageshadow="2"
     inkscape:zoom="1.979899"
     inkscape:cx="137.63328"
     inkscape:cy="69.195449"
     inkscape:document-units="mm"
     inkscape:current-layer="layer1"
     showgrid="false"
     inkscape:showpageshadow="true"
     borderlayer="false"
     showborder="false"
     inkscape:window-width="1920"
     inkscape:window-height="1016"
     inkscape:window-x="1920"
     inkscape:window-y="27"
     inkscape:window-maximized="1"
     inkscape:pagecheckerboard="false"
     fit-margin-top="0"
     fit-margin-left="0"
     fit-margin-right="0"
     fit-margin-bottom="0" />
  <metadata
     id="metadata991">
    <rdf:RDF>
      <cc:Work
         rdf:about="">
        <dc:format>image/svg+xml</dc:format>
        <dc:type
           rdf:resource="http://purl.org/dc/dcmitype/StillImage" />
      </cc:Work>
    </rdf:RDF>
  </metadata>
  <g
     inkscape:label="Layer 1"
     inkscape:groupmode="layer"
     id="layer1"
     transform="translate(162.64639,-99.457718)">
    <g
       id="g7474"
       transform="matrix(0.34435789,0,0,0.34435789,-657.26831,-362.04003)"
       style="stroke-width:2.90395">
      <g
         id="g7441"
         style="stroke-width:2.90395">
        <g
           id="g1987"
           transform="translate(40.645163,141.76959)"
           style="stroke-width:2.90395">
          <path
             style="fill:#91c9e2;stroke-width:2.90395"
             d="m 1398.4456,1223.5725 c -0.073,-0.6442 -0.1208,-0.7584 -0.2675,-0.6367 -0.1311,0.1088 -0.1788,0.1093 -0.1788,0 0,-0.081 -0.1762,-0.1465 -0.3916,-0.1465 -0.2611,0 -0.3916,-0.065 -0.3916,-0.1958 0,-0.1077 -0.059,-0.1958 -0.1305,-0.1958 -0.072,0 -0.1306,-0.1175 -0.1306,-0.2611 0,-0.2294 0.087,-0.261 0.718,-0.261 h 0.7179 v 0.4568 c 0,0.4373 0.021,0.4578 0.4896,0.4778 0.4819,0.021 0.4829,0.022 0.065,0.074 -0.3738,0.046 -0.4242,0.1 -0.4242,0.4488 v 0.3961 l 0.8159,-0.071 c 0.4487,-0.039 0.6396,-0.03 0.4242,0.021 -0.2708,0.063 -0.4045,0.1819 -0.4333,0.3844 -0.032,0.2261 -0.1276,0.2929 -0.4178,0.2929 -0.3628,0 -0.3792,-0.028 -0.4649,-0.7851 z m 29.2636,0.2779 c -0.026,-0.044 -0.018,-0.2679 0.017,-0.4972 0.054,-0.3557 0.1238,-0.4229 0.4739,-0.4569 0.3717,-0.036 0.4144,-0.086 0.4511,-0.5294 l 0.04,-0.4895 h 0.7101 c 0.5441,0 0.71,0.046 0.71,0.1958 0,0.1077 -0.088,0.1958 -0.1958,0.1958 -0.1088,0 -0.1958,0.116 -0.1958,0.261 0,0.1915 -0.087,0.2611 -0.3263,0.2611 -0.2393,0 -0.3264,0.07 -0.3264,0.2611 0,0.1741 -0.087,0.2611 -0.2611,0.2611 -0.174,0 -0.261,0.087 -0.261,0.2611 0,0.1435 -0.044,0.2685 -0.098,0.2777 -0.3933,0.067 -0.6989,0.066 -0.7383,0 z m -0.058,-2.3911 -0.02,-0.4833 -0.8159,-0.046 -0.8158,-0.046 0.8199,-0.025 c 0.8974,-0.027 1.0049,0.057 0.9064,0.7144 -0.047,0.3152 -0.058,0.2984 -0.075,-0.1133 z m -27.8546,-0.5903 c 0.2346,-0.029 0.5871,-0.029 0.7832,0 0.1962,0.03 0,0.054 -0.4266,0.053 -0.4308,-7e-4 -0.5912,-0.025 -0.3566,-0.054 z m 1.3508,-0.3949 c -0.014,-0.3878 0.019,-0.4243 0.3765,-0.4243 0.2611,0 0.3916,0.065 0.3916,0.1958 0,0.1203 -0.1222,0.1958 -0.3168,0.1958 -0.1919,0 -0.3403,0.09 -0.3765,0.2285 -0.033,0.1256 -0.066,0.037 -0.075,-0.1958 z m 24.6567,0.1631 c 0,-0.1218 -0.1233,-0.1958 -0.3264,-0.1958 -0.2847,0 -0.3263,-0.057 -0.3263,-0.4482 0,-0.3887 -0.048,-0.4554 -0.359,-0.5026 -0.3341,-0.051 -0.3296,-0.056 0.065,-0.074 0.3707,-0.017 0.4242,0.022 0.4242,0.3068 0,0.261 0.065,0.3263 0.3264,0.3263 0.2755,0 0.3263,0.061 0.3263,0.3916 0,0.2154 -0.029,0.3916 -0.065,0.3916 -0.036,0 -0.065,-0.088 -0.065,-0.1958 z m -15.449,-1.4685 c -0.033,-0.054 0.8884,-0.083 2.0483,-0.064 3.9412,0.063 4.336,0.1084 1.1704,0.1353 -1.7369,0.015 -3.1852,-0.017 -3.2187,-0.071 z m 9.6726,-0.2553 c 0.1616,-0.031 0.4259,-0.031 0.5874,0 0.1616,0.031 0.029,0.057 -0.2937,0.057 -0.323,0 -0.4552,-0.025 -0.2937,-0.057 z m -11.4182,-0.1345 c 0.3432,-0.027 0.8719,-0.027 1.1749,7e-4 0.3029,0.027 0.022,0.05 -0.624,0.049 -0.6462,-4e-4 -0.8941,-0.023 -0.5509,-0.05 z m -4.7359,-0.2738 c 0,-0.091 -0.2477,-0.1614 -0.6201,-0.1751 l -0.62,-0.023 0.5725,-0.051 c 0.5435,-0.048 0.9496,0.119 0.7568,0.3118 -0.049,0.049 -0.089,0.021 -0.089,-0.063 z m 2.7739,-0.3779 c 0.2693,-0.028 0.7098,-0.028 0.9791,0 0.2692,0.028 0.049,0.051 -0.4896,0.051 -0.5384,0 -0.7587,-0.023 -0.4895,-0.051 z m 1.4033,-1.8462 v -0.5053 l -0.6527,-0.087 c -0.5713,-0.076 -0.6527,-0.1244 -0.6527,-0.3902 0,-0.167 -0.037,-0.5762 -0.083,-0.9093 -0.07,-0.5075 -0.048,-0.6056 0.1305,-0.6056 0.1571,0 0.2136,0.1209 0.2136,0.4568 0,0.4461 0.012,0.4569 0.5222,0.4569 0.5097,0 0.5221,0.011 0.5221,0.4569 v 0.4569 h 5.4826 5.4827 v -0.4569 c 0,-0.4485 0.01,-0.4571 0.5547,-0.4697 0.3052,-0.01 0.7017,-0.022 0.8812,-0.033 l 0.3263,-0.02 v -4.3731 -4.373 l -0.359,-0.041 c -0.3006,-0.035 -0.3589,-0.1036 -0.3589,-0.4243 0,-0.3493 -0.039,-0.3829 -0.4487,-0.3829 -0.4107,0 -0.452,-0.036 -0.4895,-0.4243 l -0.041,-0.4242 -5.5152,-0.034 -5.5153,-0.034 v 0.4583 c 0,0.4476 -0.012,0.4583 -0.5221,0.4583 -0.4932,0 -0.5222,0.022 -0.5222,0.3916 0,0.3307 -0.051,0.3916 -0.3263,0.3916 h -0.3264 l -0.029,3.4266 c -0.016,1.8847 -0.031,3.8673 -0.033,4.4057 v 0.9791 l -0.5548,0.04 -0.5547,0.04 v -4.2961 c 0,-2.3629 -0.022,-4.6425 -0.049,-5.0659 -0.027,-0.4233 -0.024,-0.5845 0.01,-0.3582 l 0.056,0.4115 0.5137,-0.2157 c 0.6126,-0.2572 0.6948,-0.6287 0.1574,-0.7111 -0.1975,-0.03 -0.01,-0.049 0.4242,-0.041 l 0.7833,0.014 -0.016,-0.6526 c -0.01,-0.359 0.01,-0.5234 0.041,-0.3654 0.049,0.2477 0.1019,0.2702 0.3834,0.1632 0.1797,-0.068 0.6522,-0.1242 1.0501,-0.1242 0.5894,0 0.7095,-0.036 0.6482,-0.1958 -0.066,-0.1716 0.4624,-0.1958 4.2799,-0.1958 3.7507,0 4.3654,0.027 4.4301,0.1958 0.056,0.1455 0.2874,0.1958 0.9016,0.1958 0.8894,0 1.1398,0.1348 1.1398,0.6135 0,0.2855 0.05,0.3014 1.0117,0.3231 0.6111,0.014 0.792,0.043 0.4569,0.073 -0.7477,0.067 -0.7665,0.4438 -0.041,0.814 l 0.514,0.2622 0.057,-0.3575 c 0.031,-0.1966 0.035,-0.064 0.01,0.2953 -0.026,0.3589 -0.048,2.5765 -0.049,4.9278 v 4.2751 h -0.5874 -0.5874 v 0.5222 0.5221 h -0.8485 -0.8485 v 0.5222 0.5221 h -5.4827 -5.4826 z m -8.6881,-5.5647 0.01,-1.4359 0.3916,-0.012 c 0.3604,-0.011 0.3634,-0.01 0.037,0.041 l -0.3547,0.053 -0.044,1.3954 -0.044,1.3953 0.01,-1.4359 z m 11.4836,-0.979 c 0,-1.3283 0.019,-1.8716 0.043,-1.2075 0.024,0.6641 0.024,1.7508 0,2.4149 -0.024,0.6642 -0.043,0.1208 -0.043,-1.2074 z m -9.5835,1.4359 c 0,-0.7807 0,-0.7832 0.3859,-0.7832 h 0.3859 l 0.045,-0.9464 c 0.027,-0.5753 0.055,-0.2682 0.071,0.7832 l 0.026,1.7296 h -0.4569 -0.4569 z m 1.8275,-0.4307 v -1.2139 l 0.4569,0.053 0.4569,0.053 v 1.1606 1.1605 h -0.4569 -0.4569 z m 20.1019,0.4633 c -7e-4,-0.4128 -0.027,-1.0737 -0.059,-1.4685 -0.032,-0.3949 -0.027,-0.5858 0.01,-0.4243 0.051,0.2224 0.1603,0.2937 0.45,0.2937 h 0.3825 v 1.1749 1.1748 h -0.3916 c -0.3896,0 -0.3916,0 -0.3928,-0.7506 z m 1.7645,-0.7179 c -0.049,-0.8077 -0.065,-1.7036 -0.035,-1.9908 0.03,-0.2871 0.065,0.021 0.077,0.6854 l 0.022,1.2075 h 0.3916 0.3917 v 0.7832 c 0,0.7773 0,0.7832 -0.3788,0.7832 h -0.3787 z m -16.4149,0.071 c 0.1624,-0.031 0.3974,-0.03 0.5222,0 0.1248,0.033 -0.01,0.058 -0.2952,0.057 -0.2872,0 -0.3893,-0.028 -0.227,-0.059 z m 0,-1.5665 c 0.1624,-0.031 0.3974,-0.03 0.5222,0 0.1248,0.033 -0.01,0.058 -0.2952,0.057 -0.2872,0 -0.3893,-0.028 -0.227,-0.059 z m 14.5539,-0.6256 c 0,-0.2872 0.028,-0.3893 0.059,-0.2269 0.031,0.1624 0.03,0.3973 0,0.5221 -0.033,0.1248 -0.058,-0.01 -0.057,-0.2952 z m -11.6437,-7.8409 c 0.698,-0.8411 4.3006,-0.8277 4.3006,0.016 0,0.1568 -0.3744,0.1884 -2.2352,0.1884 -2.0138,0 -2.2183,-0.02 -2.0654,-0.2044 z m 0.9392,-0.8066 c 0.6282,-0.024 1.6562,-0.024 2.2844,0 0.6283,0.024 0.1143,0.043 -1.1422,0.043 -1.2564,0 -1.7704,-0.019 -1.1422,-0.043 z"
             id="path315982-1-5" />
          <path
             style="fill:#56b9d5;stroke-width:2.90395"
             d="m 1399.3795,1224.4278 c -0.1087,-0.5794 -0.05,-0.6778 0.452,-0.7514 l 0.3995,-0.059 -0.039,0.5984 c -0.035,0.5371 -0.074,0.6024 -0.382,0.6381 -0.3009,0.035 -0.3539,-0.017 -0.4306,-0.4264 z m 27.4689,-0.1278 c 0,-0.6876 0.136,-0.8071 0.6352,-0.5581 0.204,0.1018 0.5263,0.1684 0.7163,0.1482 0.2671,-0.028 0.3455,0.02 0.3455,0.2153 0,0.2012 -0.092,0.2522 -0.4569,0.2522 -0.3699,0 -0.4569,0.05 -0.4569,0.2611 0,0.203 -0.087,0.261 -0.3916,0.261 -0.3764,0 -0.3916,-0.023 -0.3916,-0.5797 z m -28.4575,-0.2688 c 0,-0.203 -0.074,-0.3263 -0.1958,-0.3263 -0.2672,0 -0.2485,-0.4795 0.033,-0.8355 0.2238,-0.2834 0.2288,-0.2713 0.2466,0.5995 0.01,0.4888 0,0.8887 -0.033,0.8887 -0.028,0 -0.051,-0.1469 -0.051,-0.3264 z m 30.1545,-0.5221 c 0,-0.1088 0.116,-0.1958 0.261,-0.1958 0.1451,0 0.2611,0.087 0.2611,0.1958 0,0.1088 -0.116,0.1958 -0.2611,0.1958 -0.145,0 -0.261,-0.087 -0.261,-0.1958 z m 1.19,-0.9464 c -0.01,-0.1808 0.06,-0.2937 0.1806,-0.2937 0.1188,0 0.1922,0.1156 0.1867,0.2937 -0.01,0.2784 -0.015,0.2801 -0.113,0.033 l -0.1038,-0.2611 -0.068,0.2611 c -0.062,0.2381 -0.069,0.2352 -0.083,-0.033 z m -30.3001,-0.7956 v -0.7803 l 0.7592,-0.044 c 0.711,-0.041 0.7558,-0.027 0.7066,0.2293 -0.04,0.2075 -0.1266,0.2593 -0.3594,0.2147 -0.2797,-0.053 -0.3105,-0.01 -0.3477,0.5098 -0.037,0.5112 -0.077,0.5726 -0.3998,0.6098 -0.3561,0.041 -0.3589,0.035 -0.3589,-0.739 z m 27.5001,0.6759 c -0.048,-0.048 -0.087,-0.2828 -0.087,-0.5221 0,-0.3965 -0.035,-0.4352 -0.3916,-0.4352 -0.299,0 -0.3917,-0.059 -0.3917,-0.2502 0,-0.1376 -0.044,-0.2748 -0.098,-0.3049 -0.054,-0.03 -0.02,-0.035 0.076,-0.011 0.096,0.024 0.4859,0.044 0.8674,0.044 h 0.6936 l 0.046,0.4895 c 0.077,0.8165 0,1.077 -0.3326,1.077 -0.1625,0 -0.3346,-0.039 -0.3825,-0.087 z m -18.8846,-2.0668 v -0.718 h 0.7832 c 0.6962,0 0.7833,0.029 0.7833,0.2611 0,0.2552 0.087,0.2611 3.8509,0.2611 3.7638,0 3.8508,-0.01 3.8508,-0.2611 0,-0.2343 0.087,-0.2611 0.8485,-0.2611 h 0.8486 v 0.718 0.7179 h -5.4827 -5.4826 z m 16.5784,-0.1306 c 0,-0.1367 -0.1378,-0.1958 -0.4569,-0.1958 -0.3191,0 -0.4569,-0.059 -0.4569,-0.1958 0,-0.1088 -0.116,-0.1958 -0.261,-0.1958 -0.2114,0 -0.2611,-0.087 -0.2611,-0.4569 v -0.4569 h 0.6527 c 0.6382,0 0.6527,0.01 0.6527,0.3916 0,0.3307 0.051,0.3917 0.3263,0.3917 0.2393,0 0.3264,0.07 0.3264,0.261 0,0.1528 -0.087,0.2611 -0.2098,0.2611 -0.1328,0 -0.1822,0.072 -0.1346,0.1958 0.041,0.1077 0.018,0.1958 -0.051,0.1958 -0.07,0 -0.1265,-0.088 -0.1265,-0.1958 z m -22.7137,-0.5221 c 0,-0.2756 0.061,-0.3264 0.3916,-0.3264 0.3265,0 0.3916,-0.052 0.3916,-0.3137 0,-0.2812 0.065,-0.3185 0.6229,-0.359 l 0.6229,-0.045 -0.05,0.4242 c -0.029,0.2455 -0.1243,0.4243 -0.2267,0.4243 -0.097,0 -0.2398,0.1174 -0.3167,0.261 -0.2329,0.4352 -1.4359,0.3806 -1.4359,-0.065 z m 4.5377,-0.8103 c 0.1624,-0.031 0.3974,-0.03 0.5222,0 0.1248,0.033 -0.01,0.058 -0.2952,0.057 -0.2872,0 -0.3893,-0.028 -0.227,-0.059 z m 4.3063,-2.0941 c 1.5257,-0.021 4.0222,-0.021 5.5479,0 1.5256,0.021 0.2774,0.038 -2.774,0.038 -3.0513,0 -4.2996,-0.017 -2.7739,-0.038 z m -4.4294,-1.6132 c -0.065,-0.6786 0.019,-1.4219 0.1606,-1.4219 0.06,0 0.1486,0.408 0.1977,0.9068 0.077,0.7844 0.1268,0.9141 0.3669,0.9612 0.1582,0.031 0.073,0.062 -0.1983,0.072 -0.4653,0.017 -0.4769,0.01 -0.5269,-0.5184 z m 14.383,0.014 c 0,-0.5129 -0.1012,-0.5969 -0.6581,-0.5467 -0.039,0 -0.048,-0.1893 -0.02,-0.4285 0.041,-0.3544 0.1149,-0.4441 0.397,-0.4848 l 0.3462,-0.05 0.037,1.0159 c 0.021,0.5588 0.01,1.016 -0.033,1.016 -0.038,0 -0.07,-0.2349 -0.07,-0.5221 z m -12.0422,0.2954 c 0.3769,-0.026 0.9937,-0.026 1.3706,0 0.377,0.026 0.069,0.048 -0.6853,0.048 -0.7539,0 -1.0623,-0.022 -0.6853,-0.048 z m -1.6435,-1.3071 c 0.02,-0.4709 0.023,-0.4736 0.073,-0.073 0.044,0.3565 0.1121,0.4241 0.4686,0.4687 0.4007,0.05 0.3979,0.053 -0.073,0.073 -0.4857,0.021 -0.4893,0.017 -0.4686,-0.4686 z m 14.9193,-4.0141 c 0,-2.5128 0.017,-3.5223 0.039,-2.2433 0.021,1.279 0.021,3.335 0,4.5688 -0.022,1.2339 -0.039,0.1874 -0.039,-2.3255 z m -15.6879,2.9372 c 0,-0.3231 0.026,-0.4553 0.057,-0.2937 0.031,0.1615 0.031,0.4258 0,0.5874 -0.031,0.1615 -0.057,0.029 -0.057,-0.2937 z m 18.6849,-1.2241 c -0.038,-0.099 -0.047,-0.466 -0.02,-0.8159 l 0.05,-0.6361 0.024,0.7424 c 0.023,0.7338 0.028,0.7429 0.4478,0.7949 l 0.4242,0.053 -0.4283,0.021 c -0.2593,0.013 -0.4556,-0.05 -0.4973,-0.1589 z m -1.8362,-0.9298 c 5e-4,-0.5744 0.023,-0.7931 0.051,-0.4861 0.028,0.307 0.027,0.777 -9e-4,1.0443 -0.028,0.2674 -0.051,0.016 -0.05,-0.5582 z m -2.3647,-2.3084 -0.03,-2.7 -0.359,-0.054 -0.359,-0.054 0.3631,-0.019 c 0.4959,-0.027 0.4961,-0.025 0.4527,2.9212 l -0.038,2.6071 z m -1.709,-3.9887 -0.018,-0.4228 -5.5153,-0.035 -5.5153,-0.036 5.5194,-0.031 c 5.959,-0.034 5.7387,-0.059 5.6045,0.6446 -0.044,0.2317 -0.062,0.2034 -0.076,-0.1196 z m -12.3289,-0.2491 c 0.1762,-0.038 0.3074,-0.1848 0.3422,-0.382 0.049,-0.2784 0.054,-0.2732 0.041,0.041 -0.013,0.2871 -0.082,0.3649 -0.3423,0.3819 -0.272,0.018 -0.2788,0.011 -0.041,-0.041 z m 5.3273,-3.6594 c 1.9119,-0.094 3.8216,-0.099 3.7658,-0.01 -0.033,0.054 -1.0707,0.087 -2.3049,0.073 -1.2343,-0.014 -1.8916,-0.043 -1.4609,-0.064 z"
             id="path315980-5-3" />
          <path
             style="fill:#bb8975;stroke-width:2.90395"
             d="m 1411.4156,1228.5696 c 0.3071,-0.028 0.777,-0.027 1.0443,9e-4 0.2674,0.028 0.016,0.051 -0.5582,0.05 -0.5744,-6e-4 -0.7931,-0.024 -0.4861,-0.051 z m 14.0334,-0.1309 c 0.3432,-0.027 0.8719,-0.027 1.1749,8e-4 0.3029,0.027 0.022,0.049 -0.624,0.049 -0.6462,-3e-4 -0.8941,-0.023 -0.5509,-0.05 z m 5.8833,-5.6476 c 0,-0.6102 0.022,-0.8599 0.05,-0.5548 0.027,0.3052 0.027,0.8045 0,1.1096 -0.028,0.3051 -0.05,0.056 -0.05,-0.5548 z m -32.9236,-0.5548 c -0.017,-0.3412 0.01,-0.3579 0.537,-0.337 l 0.5548,0.022 -0.4814,0.051 c -0.3706,0.039 -0.4942,0.1166 -0.537,0.337 -0.046,0.2365 -0.059,0.2238 -0.073,-0.073 z m 30.1367,-0.09 c 0,-0.067 -0.1909,-0.146 -0.4243,-0.1749 -0.4177,-0.052 -0.4167,-0.053 0.065,-0.074 0.3574,-0.015 0.4895,0.032 0.4895,0.175 0,0.1077 -0.029,0.1958 -0.065,0.1958 -0.036,0 -0.065,-0.055 -0.065,-0.1223 z m 1.2104,-2.0969 c 0,-0.3231 0.025,-0.4552 0.056,-0.2937 0.031,0.1615 0.031,0.4259 0,0.5874 -0.031,0.1616 -0.056,0.029 -0.056,-0.2937 z m -13.0562,-1.0443 c 0.042,-0.1546 0.2983,-0.1977 1.2174,-0.2046 l 1.1643,-0.01 -1.1054,0.047 c -0.6632,0.028 -1.1502,0.1102 -1.2174,0.2047 -0.08,0.1117 -0.097,0.1005 -0.059,-0.038 z m -13.1278,-2.0426 c 0.1572,-0.034 0.3118,-0.1768 0.3437,-0.3171 0.045,-0.1983 0.054,-0.1892 0.041,0.041 -0.013,0.2174 -0.1038,0.3014 -0.3437,0.3171 -0.2718,0.018 -0.2786,0.011 -0.041,-0.041 z m 19.8515,-0.9216 c 0.1623,-0.031 0.3973,-0.03 0.5221,0 0.1248,0.033 -0.01,0.058 -0.2952,0.057 -0.2872,0 -0.3893,-0.028 -0.2269,-0.059 z m -13.8387,-3.9182 c 0.2334,-0.029 0.6152,-0.029 0.8485,0 0.2334,0.029 0.043,0.053 -0.4242,0.053 -0.4667,0 -0.6576,-0.024 -0.4243,-0.053 z m 7.1162,7e-4 c 0.1984,-0.03 0.4921,-0.029 0.6527,0 0.1605,0.031 0,0.056 -0.3608,0.055 -0.359,0 -0.4903,-0.026 -0.2919,-0.056 z m 2.2379,-2.6476 c 0,-1.1847 0.02,-1.6693 0.044,-1.077 0.024,0.5924 0.024,1.5616 0,2.1539 -0.024,0.5923 -0.044,0.1077 -0.044,-1.0769 z m -2.434,-0.484 c 0.1624,-0.031 0.3974,-0.03 0.5222,0 0.1248,0.033 -0.01,0.058 -0.2953,0.057 -0.2872,0 -0.3893,-0.028 -0.2269,-0.059 z m 0.064,-1.6981 c 0.1974,-0.03 0.5205,-0.03 0.7179,0 0.1975,0.03 0.036,0.054 -0.359,0.054 -0.3948,0 -0.5564,-0.024 -0.3589,-0.054 z m 6.7242,-0.3905 c 0.1624,-0.031 0.3974,-0.03 0.5222,0 0.1248,0.033 -0.01,0.058 -0.2953,0.057 -0.2872,0 -0.3893,-0.028 -0.2269,-0.059 z m -15.6627,-3.7892 c 0.307,-0.028 0.777,-0.027 1.0443,8e-4 0.2674,0.028 0.016,0.051 -0.5582,0.05 -0.5744,-5e-4 -0.7931,-0.023 -0.4861,-0.051 z m 10.2321,-0.5196 -0.021,-0.5501 -1.2727,-0.043 -1.2728,-0.043 1.2768,-0.027 c 1.4086,-0.03 1.4594,0 1.3641,0.7761 -0.049,0.3972 -0.056,0.387 -0.075,-0.1134 z m -0.5742,-1.957 c 0.1624,-0.031 0.3974,-0.03 0.5222,0 0.1248,0.033 -0.01,0.058 -0.2952,0.057 -0.2872,0 -0.3893,-0.028 -0.227,-0.059 z m -7.2417,-0.6257 c 0,-0.3589 0.026,-0.4903 0.056,-0.2919 0.03,0.1984 0.029,0.4922 0,0.6527 -0.031,0.1606 -0.056,0 -0.055,-0.3608 z"
             id="path315978-5-5"
             sodipodi:nodetypes="sscssscssssccscsccscccscssccssssccccccccscsccccccsssscccccsssscccccsssscccccsscssccccssccccccccsccc" />
          <path
             style="fill:#ac6a4f;stroke-width:2.90395"
             d="m 1413.8331,1228.5682 c 0.5597,-0.024 1.4408,-0.024 1.9581,4e-4 0.5172,0.025 0.059,0.045 -1.0177,0.045 -1.0769,-10e-5 -1.5001,-0.02 -0.9404,-0.045 z m 7.7937,-3.6885 -0.7179,-0.088 0.7506,-0.021 c 0.4275,-0.012 0.7506,0.035 0.7506,0.1092 0,0.072 -0.015,0.121 -0.033,0.1093 -0.018,-0.012 -0.3557,-0.061 -0.7506,-0.1093 z m 6.9633,-3.9814 c 5e-4,-0.5744 0.023,-0.7931 0.051,-0.4861 0.028,0.3071 0.027,0.777 -9e-4,1.0444 -0.028,0.2673 -0.051,0.016 -0.05,-0.5583 z m -30.1659,-0.8485 c 0.042,-0.1556 0.3054,-0.1975 1.2827,-0.2042 l 1.2296,-0.01 -1.1706,0.047 c -0.7161,0.028 -1.2141,0.1078 -1.2827,0.2042 -0.08,0.1121 -0.097,0.1011 -0.059,-0.038 z m 26.4335,-1.3998 c 0.2333,-0.029 0.6151,-0.029 0.8485,0 0.2333,0.029 0.042,0.053 -0.4243,0.053 -0.4667,0 -0.6576,-0.024 -0.4242,-0.053 z m -25.035,-6.5057 0.3874,-0.073 0.044,-1.4606 0.044,-1.4606 -0.01,1.5012 -0.01,1.5012 -0.4243,0.033 c -0.4105,0.031 -0.4117,0.03 -0.037,-0.041 z m 17.9072,-0.014 c 0.1183,-0.031 0.2449,-0.1715 0.2815,-0.3112 0.051,-0.1938 0.17,-0.2491 0.5029,-0.2332 l 0.4365,0.021 -0.4109,0.052 c -0.2704,0.034 -0.4337,0.1385 -0.4773,0.3055 -0.038,0.1443 -0.1703,0.2473 -0.3071,0.2387 -0.2003,-0.013 -0.2046,-0.025 -0.026,-0.072 z m 9.3484,0 c 0.1624,-0.031 0.3974,-0.03 0.5222,0 0.1248,0.033 -0.01,0.058 -0.2952,0.057 -0.2872,0 -0.3893,-0.028 -0.227,-0.059 z m -0.3149,-1.7352 c 0,-0.6103 0.023,-0.86 0.05,-0.5548 0.027,0.3051 0.027,0.8044 0,1.1095 -0.028,0.3052 -0.05,0.056 -0.05,-0.5547 z m -9.5344,-0.5875 c 7e-4,-0.4307 0.025,-0.5912 0.054,-0.3566 0.029,0.2346 0.029,0.5871 0,0.7832 -0.03,0.1962 -0.054,0 -0.053,-0.4266 z m -16.0497,-0.5874 c 0,-0.6821 0.022,-0.9611 0.049,-0.62 0.027,0.341 0.027,0.899 0,1.2401 -0.027,0.341 -0.049,0.062 -0.049,-0.6201 z m 24.6686,-0.2611 c 0,-0.5384 0.023,-0.7587 0.051,-0.4895 0.028,0.2692 0.028,0.7098 0,0.9791 -0.028,0.2692 -0.051,0.049 -0.051,-0.4896 z m -17.6274,-0.9137 c 0,-0.3949 0.024,-0.5565 0.054,-0.359 0.03,0.1974 0.03,0.5205 0,0.7179 -0.03,0.1975 -0.054,0.036 -0.054,-0.3589 z m 1.1031,-0.7483 c 0.3051,-0.028 0.8044,-0.028 1.1095,0 0.3052,0.027 0.055,0.05 -0.5548,0.05 -0.6102,0 -0.8599,-0.023 -0.5547,-0.05 z m 8.5502,0 c 0.1975,-0.03 0.5206,-0.03 0.718,0 0.1974,0.03 0.036,0.054 -0.359,0.054 -0.3949,0 -0.5564,-0.024 -0.359,-0.054 z m 5.5495,-1.6959 c 0.1623,-0.031 0.3973,-0.03 0.5221,0 0.1248,0.033 -0.01,0.058 -0.2952,0.057 -0.2872,0 -0.3893,-0.028 -0.2269,-0.059 z m -12.6563,-3.6603 c 0.8836,-0.023 2.2934,-0.023 3.1329,2e-4 0.8395,0.023 0.1165,0.041 -1.6066,0.041 -1.7231,-10e-5 -2.41,-0.019 -1.5263,-0.041 z m 8.608,-0.1251 c 0.1616,-0.031 0.4259,-0.031 0.5875,0 0.1615,0.031 0.029,0.057 -0.2938,0.057 -0.323,0 -0.4552,-0.025 -0.2937,-0.057 z m -10.2799,-1.0037 c 0,-0.028 0.23,-0.073 0.5112,-0.1003 0.2811,-0.027 0.4833,0 0.4492,0.052 -0.062,0.1004 -0.9604,0.146 -0.9604,0.049 z m 3.2961,-2.3955 c 0.7,-0.023 1.8455,-0.023 2.5455,0 0.7,0.024 0.1273,0.043 -1.2727,0.043 -1.4001,0 -1.9728,-0.019 -1.2728,-0.043 z"
             id="path315976-4-6"
             sodipodi:nodetypes="ccsccccsssccsssssccccsccssssccccccccccsscccccccccccsscscscccssssssssssssccscsssscccccssssscsscsscssccsc" />
          <path
             style="fill:#0496b6;stroke-width:2.90395"
             d="m 1425.411,1226.8705 c 0,-0.9859 -0.1455,-1.3381 -0.5378,-1.3381 -0.3125,0 -0.3745,-0.054 -0.3745,-0.3263 v -0.3264 h 1.5664 c 1.4795,0 1.5665,-0.014 1.5665,-0.261 0,-0.2114 0.087,-0.2611 0.4569,-0.2611 0.4003,0 0.4569,-0.04 0.4569,-0.3264 0,-0.2393 0.07,-0.3263 0.261,-0.3263 0.2162,0 0.2611,0.087 0.2611,0.5053 0,0.5043 0,0.5055 -0.62,0.5877 -0.3824,0.051 -0.7655,0.2074 -0.9994,0.4085 -0.2086,0.1793 -0.5096,0.326 -0.669,0.326 -0.303,0 -0.4529,0.3898 -0.4529,1.1772 0,0.3669 -0.1951,0.5198 -0.6634,0.5198 -0.1857,0 -0.2507,-0.093 -0.2518,-0.3589 z m -24.6671,-0.1959 c 0.069,-1.2603 0.063,-1.2727 -0.656,-1.2727 -0.5533,0 -0.6526,-0.038 -0.6526,-0.2471 0,-0.2983 -0.2446,-0.4056 -0.9245,-0.4056 -0.5097,0 -0.5115,0 -0.5115,-0.5221 0,-0.2872 0.057,-0.5222 0.1265,-0.5222 0.069,0 0.097,0.077 0.06,0.1717 -0.036,0.094 -0.01,0.3147 0.061,0.4895 0.07,0.1748 0.1307,0.2444 0.1353,0.1547 0.016,-0.3131 1.0526,-0.207 1.0526,0.1077 0,0.2143 0.075,0.266 0.3589,0.2472 0.1975,-0.013 0.9024,-0.017 1.5665,-0.01 1.1973,0.014 1.2075,0.017 1.2075,0.3402 0,0.2565 -0.066,0.3263 -0.31,0.3263 -0.3268,0 -0.4732,0.3686 -0.4732,1.1912 0,0.352 -0.033,0.3753 -0.5322,0.3753 -0.5181,0 -0.5315,-0.011 -0.5089,-0.4243 z m 8.5913,-2.3746 0.046,-0.5798 -0.6326,-0.04 c -0.6086,-0.039 -0.6342,-0.056 -0.6735,-0.4645 -0.036,-0.3731 -0.087,-0.4243 -0.4243,-0.4243 h -0.3833 v -1.1748 -1.1749 h -0.5222 c -0.4931,0 -0.5221,-0.022 -0.5221,-0.3916 0,-0.3698 -0.029,-0.3916 -0.5222,-0.3916 h -0.5221 v -1.2401 -1.2401 h 0.5221 0.5222 v 0.9137 0.9138 h 0.5221 c 0.47,0 0.5222,0.033 0.5222,0.3264 0,0.2755 0.061,0.3263 0.3916,0.3263 0.3877,0 0.3916,0.01 0.3916,0.718 v 0.7179 h 5.4826 5.4827 v -0.7179 c 0,-0.7107 0,-0.718 0.3916,-0.718 0.3307,0 0.3916,-0.051 0.3916,-0.3263 0,-0.2938 0.052,-0.3264 0.5221,-0.3264 h 0.5222 v -0.9138 -0.9137 h 0.5874 0.5874 v 1.2401 1.2401 h -0.5874 c -0.5657,0 -0.5874,0.014 -0.5874,0.3916 0,0.3699 -0.029,0.3916 -0.5222,0.3916 h -0.5221 v 1.1749 1.1748 h -0.4569 c -0.4351,0 -0.4569,0.022 -0.4569,0.4569 0,0.4545 0,0.4569 -0.5874,0.4569 h -0.5874 v 0.5874 0.5874 h -4.2108 -4.2109 z m -7.9722,-0.6897 c 0.2347,-0.029 0.5871,-0.028 0.7833,0 0.1961,0.03 0,0.054 -0.4266,0.053 -0.4308,-7e-4 -0.5913,-0.025 -0.3567,-0.054 z m 23.6275,0 c 0.2347,-0.029 0.5871,-0.028 0.7833,0 0.1961,0.03 0,0.054 -0.4266,0.053 -0.4308,-7e-4 -0.5913,-0.025 -0.3567,-0.054 z m -25.5552,-0.9349 c 0,-0.064 0.1762,-0.1416 0.3916,-0.1732 0.2672,-0.039 0.3916,0 0.3916,0.1157 0,0.1054 -0.1533,0.1732 -0.3916,0.1732 -0.2154,0 -0.3916,-0.052 -0.3916,-0.1157 z m 27.4131,-0.057 c 0,-0.1182 0.1243,-0.1549 0.3916,-0.1157 0.2154,0.032 0.3916,0.1096 0.3916,0.1732 0,0.064 -0.1762,0.1157 -0.3916,0.1157 -0.2384,0 -0.3916,-0.068 -0.3916,-0.1732 z m -25.9621,-1.3316 c -0.01,-0.1456 0.1024,-0.3653 0.246,-0.4882 0.1436,-0.123 0.261,-0.1683 0.261,-0.1008 0,0.068 -0.082,0.1697 -0.1812,0.2272 -0.1,0.057 -0.2104,0.2218 -0.246,0.3654 -0.064,0.2582 -0.065,0.2581 -0.08,0 z m 1.0292,-0.9935 c 0,-0.1722 0.095,-0.243 0.3263,-0.243 0.1909,0 0.3264,0.075 0.3264,0.1806 0,0.099 -0.1469,0.2087 -0.3264,0.243 -0.2535,0.049 -0.3263,0.01 -0.3263,-0.1806 z m 23.0727,0.1382 c -0.273,-0.159 -0.3009,-0.3812 -0.048,-0.3812 0.099,0 0.2113,0.1175 0.2489,0.2611 0.037,0.1436 0.059,0.2593 0.048,0.2571 -0.011,0 -0.1232,-0.064 -0.2488,-0.137 z"
             id="path315974-7-2" />
          <path
             style="fill:#116c9a;stroke-width:2.90395"
             d="m 1410.9227,1226.7726 v -0.5875 h -0.7833 -0.7832 v -0.6527 -0.6527 h 4.1772 4.1773 v -0.5874 -0.5874 h 0.5874 c 0.5843,0 0.5874,0 0.5874,-0.4569 0,-0.4351 0.022,-0.4569 0.4569,-0.4569 h 0.4569 v -1.1748 -1.1749 h 0.5221 c 0.4932,0 0.5222,-0.022 0.5222,-0.3916 0,-0.3771 0.022,-0.3916 0.5874,-0.3916 h 0.5874 v 0.718 c 0,0.6309 -0.032,0.7179 -0.261,0.7179 -0.2176,0 -0.2611,0.087 -0.2611,0.5222 v 0.5221 h -0.6462 -0.6462 l -0.039,0.7506 -0.039,0.7506 -0.62,0.04 -0.6201,0.04 v 0.5803 0.5802 h -0.5874 -0.5874 v 0.6527 0.6527 h -0.7833 -0.7832 v 0.5875 0.5874 h -2.6108 -2.6107 z m -9.9536,0.3647 c 0.1615,-0.031 0.4259,-0.031 0.5874,0 0.1616,0.031 0.029,0.057 -0.2937,0.057 -0.3231,0 -0.4553,-0.025 -0.2937,-0.057 z m 24.3484,-0.43 c 0,-0.3231 0.025,-0.4553 0.057,-0.2937 0.031,0.1615 0.031,0.4259 0,0.5874 -0.031,0.1615 -0.057,0.029 -0.057,-0.2937 z m 0.8455,0.4357 c 0.09,-0.036 0.1632,-0.2298 0.1632,-0.4303 0,-0.8022 0.1486,-1.1803 0.4639,-1.1803 0.1654,0 0.3786,-0.073 0.4737,-0.1631 0.5965,-0.5627 0.6289,-0.5584 0.6289,0.082 v 0.6034 h -0.718 -0.7179 v 0.5874 c 0,0.4764 -0.043,0.5855 -0.2285,0.5771 -0.1365,-0.01 -0.1627,-0.037 -0.065,-0.076 z m -24.2736,-1.3169 c 0.04,-0.2066 0.1488,-0.2937 0.3677,-0.2937 0.2435,0 0.3111,-0.07 0.3111,-0.3214 0,-0.3152 -0.024,-0.3223 -1.2075,-0.3666 -0.7885,-0.03 -0.6187,-0.043 0.4895,-0.038 l 1.697,0.01 0.039,0.6091 0.039,0.609 -0.8965,0.044 c -0.8692,0.042 -0.8947,0.035 -0.84,-0.2501 z m -2.7152,-0.3589 v -0.5875 l -0.6201,-0.021 c -0.5076,-0.017 -0.5398,-0.031 -0.1777,-0.075 0.6551,-0.08 1.0589,0.057 1.0589,0.3593 0,0.2233 0.089,0.2586 0.6526,0.2586 0.6092,0 0.6527,0.022 0.6527,0.3263 0,0.3119 -0.035,0.3264 -0.7832,0.3264 h -0.7832 z m 24.4107,-0.065 v -0.6527 l 1.6644,0.027 c 1.488,0.024 1.5364,0.032 0.4569,0.07 -1.1844,0.042 -1.2075,0.049 -1.2075,0.3645 0,0.2701 0.062,0.3214 0.3916,0.3214 0.3046,0 0.3916,0.058 0.3916,0.2611 0,0.2343 -0.087,0.2611 -0.8485,0.2611 h -0.8485 z m -15.5338,-1.1422 -3e-4,-0.5548 h -0.5874 -0.5874 v -0.8485 -0.8485 h -0.6527 -0.6527 v -0.5222 c 0,-0.4351 -0.043,-0.5221 -0.2611,-0.5221 -0.2495,0 -0.2611,-0.087 -0.2611,-1.9581 v -1.9581 l 0.6201,0.023 0.62,0.023 -0.5548,0.05 -0.5547,0.05 v 1.2326 1.2326 h 0.5221 c 0.4932,0 0.5222,0.022 0.5222,0.3916 0,0.3699 0.029,0.3916 0.5221,0.3916 h 0.5222 v 1.1749 1.1748 h 0.3833 c 0.3371,0 0.3883,0.051 0.4243,0.4243 0.039,0.4075 0.065,0.4258 0.6681,0.4643 l 0.6272,0.04 -0.04,0.5473 -0.04,0.5474 h -0.6198 -0.6198 l -2e-4,-0.5548 z m -9.849,0.014 c -0.048,-0.1906 -0.025,-0.4069 0.051,-0.483 0.097,-0.097 0.1377,0.01 0.1377,0.3453 0,0.5685 -0.068,0.6183 -0.1888,0.1377 z m -1.3086,-1.4273 c -0.051,-0.4723 -0.057,-0.8933 -0.015,-0.9355 0.042,-0.042 0.077,0.1351 0.077,0.394 0,0.4498 0.022,0.4726 0.4895,0.5113 0.447,0.037 0.4931,0.077 0.5305,0.4647 0.04,0.4139 0.028,0.4243 -0.4743,0.4243 h -0.5153 z m 4.8588,0.7623 c -0.9929,-0.062 -0.9671,-0.2951 0.033,-0.2951 0.6091,0 0.7832,0.043 0.7832,0.1958 0,0.1077 -0.015,0.1847 -0.033,0.1711 -0.018,-0.014 -0.3704,-0.046 -0.7832,-0.072 z m 25.6428,0.016 c 0.1213,-0.036 0.2484,-0.1944 0.2825,-0.3515 0.052,-0.2394 0.059,-0.2331 0.041,0.039 -0.015,0.2207 -0.1053,0.3336 -0.2825,0.3515 -0.1879,0.019 -0.1993,0.01 -0.041,-0.039 z m 1.6724,-0.3761 c 0,-0.446 0.013,-0.4569 0.5222,-0.4569 0.5097,0 0.5221,0.011 0.5221,0.4569 0,0.446 -0.012,0.4569 -0.5221,0.4569 -0.5097,0 -0.5222,-0.011 -0.5222,-0.4569 z m -4.373,0.1958 c 0.044,-0.072 0.3709,-0.1305 0.7256,-0.1305 0.3548,0 0.645,0.059 0.645,0.1305 0,0.072 -0.3265,0.1306 -0.7256,0.1306 -0.4506,0 -0.6951,-0.05 -0.645,-0.1306 z m -25.1598,-0.6145 c 0.1624,-0.031 0.3973,-0.03 0.5221,0 0.1248,0.033 -0.01,0.058 -0.2952,0.057 -0.2872,0 -0.3893,-0.028 -0.2269,-0.059 z m 27.665,0 c 0.3564,-0.045 0.424,-0.1121 0.4686,-0.4686 0.05,-0.4007 0.053,-0.3979 0.073,0.073 0.021,0.4858 0.017,0.4894 -0.4686,0.4687 -0.4709,-0.02 -0.4736,-0.023 -0.073,-0.073 z m -26.9812,-1.081 c 0,-0.203 0.087,-0.2611 0.3916,-0.2611 0.2611,0 0.3916,-0.065 0.3916,-0.1958 0,-0.3313 0.4679,-0.6858 1.0305,-0.7809 0.3318,-0.056 0.536,-0.1607 0.536,-0.2749 0,-0.1182 0.1419,-0.1843 0.3957,-0.1843 0.2313,0 0.4269,-0.081 0.4708,-0.1958 0.041,-0.1077 0.1535,-0.1958 0.2491,-0.1958 0.1049,0 0.1943,-0.1944 0.2252,-0.4895 0.028,-0.2693 0.061,0.024 0.073,0.6527 l 0.022,1.1422 h -0.718 -0.7179 v 0.5221 0.5222 h -1.1749 c -1.0878,0 -1.1748,-0.019 -1.1748,-0.2611 z m 24.4107,-0.1958 v -0.4569 h -0.718 -0.7179 v -0.7179 c 0,-0.631 0.032,-0.718 0.2611,-0.718 0.145,0 0.261,0.087 0.261,0.1958 0,0.1368 0.1378,0.1958 0.4569,0.1958 0.3105,0 0.4569,0.06 0.4569,0.1878 0,0.1225 0.2042,0.2185 0.5874,0.2759 0.3714,0.056 0.5875,0.1547 0.5875,0.2691 0,0.1 0.059,0.181 0.1305,0.181 0.072,0 0.1305,0.1175 0.1305,0.2611 0,0.203 0.087,0.261 0.3917,0.261 0.3045,0 0.3916,0.058 0.3916,0.2611 0,0.2406 -0.087,0.2611 -1.1096,0.2611 h -1.1096 z m -13.3149,-4.112 v -0.5221 h 2.2191 2.2192 v 0.5221 0.5222 h -2.2192 -2.2191 z m 9.8248,-0.3547 c 0.1984,-0.03 0.4921,-0.029 0.6527,0 0.1605,0.031 0,0.056 -0.3608,0.055 -0.359,-10e-4 -0.4903,-0.026 -0.2919,-0.056 z m -13.915,-0.2544 c -0.048,-0.048 -0.087,-0.3122 -0.087,-0.5875 0,-0.4848 0.014,-0.5004 0.4569,-0.5004 0.4545,0 0.4569,0 0.4569,0.5875 0,0.558 -0.019,0.5874 -0.3699,0.5874 -0.2034,0 -0.409,-0.039 -0.4568,-0.087 z m 11.792,-0.4212 c 0,-0.5971 0.1168,-0.6667 1.1202,-0.6667 h 0.7073 v -0.5221 -0.5222 h 0.5874 0.5874 v 0.5067 0.5068 l -1.1095,0.092 -1.1096,0.092 v 0.5105 c 0,0.4801 -0.023,0.5104 -0.3916,0.5104 -0.3681,0 -0.3916,-0.031 -0.3916,-0.5082 z m -13.898,-1.7436 c -0.046,-0.5923 -0.065,-2.8686 -0.042,-5.0584 l 0.042,-3.9814 0.031,4.5287 0.031,4.5287 0.5417,0.04 c 0.5291,0.039 0.542,0.052 0.5548,0.5297 0.013,0.4894 0.013,0.4896 -0.53,0.4895 l -0.5431,-10e-5 z m 9.6473,0.8467 4.1038,-0.034 0.041,-0.4224 c 0.037,-0.3839 0.085,-0.4261 0.5226,-0.4625 0.4363,-0.036 0.4856,-0.079 0.5221,-0.4569 0.033,-0.344 0.1023,-0.4239 0.3946,-0.4577 0.3527,-0.041 0.3544,-0.046 0.3998,-1.2401 l 0.046,-1.1992 -0.01,1.2401 -0.01,1.2401 -0.3513,0.041 c -0.289,0.033 -0.3584,0.1143 -0.3916,0.4568 -0.037,0.377 -0.086,0.4202 -0.5221,0.4564 -0.4364,0.036 -0.4856,0.079 -0.5222,0.4569 l -0.04,0.4168 h -4.1446 -4.1446 z m -11.6751,-2.1847 v -1.3707 h 0.4569 0.4569 v 1.3707 1.3706 h -0.4569 -0.4569 z m 19.9724,0 v -1.3707 h 0.4569 0.4569 v 1.3707 1.3706 h -0.4569 -0.4569 z m -21.6367,0.5034 c -0.1061,-0.044 -0.1632,-0.3564 -0.1632,-0.8916 v -0.8234 l 0.4621,-0.054 0.4621,-0.054 -0.038,0.9208 c -0.039,0.9474 -0.1835,1.1278 -0.7231,0.9021 z m 23.4643,-0.8688 v -0.9529 l 0.4569,0.053 0.4569,0.053 v -0.8845 c 0,-0.4865 0.035,-0.8496 0.078,-0.8069 0.043,0.043 0.035,0.8455 -0.017,1.784 l -0.094,1.7064 h -0.4402 -0.4401 z m -23.7163,-1.7885 c 0,-0.4667 0.024,-0.6576 0.053,-0.4243 0.029,0.2334 0.029,0.6152 0,0.8485 -0.029,0.2334 -0.053,0.043 -0.053,-0.4242 z"
             id="path315972-6-9" />
          <path
             style="fill:#1b1a1b;stroke-width:2.90395"
             d="m 1410.0089,1228.2737 c -0.1436,-0.1435 -0.2611,-0.371 -0.2611,-0.5054 0,-0.1864 -0.131,-0.2654 -0.5514,-0.3326 -0.6798,-0.1087 -1.0151,-0.3956 -1.0151,-0.8688 0,-0.2947 -0.072,-0.3768 -0.39,-0.4467 -0.4276,-0.094 -0.9153,-0.6196 -0.9153,-0.9866 0,-0.243 -1.2271,-0.4698 -1.965,-0.3631 -0.2939,0.043 -0.2777,0.067 0.2027,0.3061 0.2872,0.143 0.542,0.3672 0.5662,0.4982 0.055,0.2994 -0.333,0.7409 -0.6517,0.7409 -0.1325,0 -0.2409,0.08 -0.2409,0.1782 0,0.455 -0.5299,0.8661 -1.1165,0.8661 -0.5064,0 -0.5854,0.039 -0.6582,0.3294 -0.1343,0.5353 -0.5298,0.7149 -1.5745,0.7149 -1.1761,0 -1.5931,-0.153 -1.7822,-0.654 -0.1229,-0.3256 -0.2193,-0.3903 -0.5815,-0.3903 -0.4903,0 -1.0751,-0.4831 -1.0751,-0.8881 0,-0.1673 -0.1692,-0.3136 -0.5234,-0.4528 -0.4138,-0.1625 -0.5403,-0.29 -0.6041,-0.6089 -0.055,-0.2753 -0.1758,-0.4272 -0.3807,-0.4786 -0.6581,-0.1652 -0.7762,-0.4826 -0.7762,-2.0856 0,-1.6986 0.142,-1.9822 1.0668,-2.1313 0.4859,-0.078 0.5007,-0.097 0.5354,-0.6664 0.069,-1.1263 0.4409,-1.4344 1.7327,-1.4344 0.5904,0 0.7771,-0.045 0.7771,-0.1885 0,-0.4611 0.5861,-0.8878 1.313,-0.9559 0.3907,-0.037 0.8262,-0.1465 0.9678,-0.2443 0.1503,-0.1038 0.5985,-0.1778 1.077,-0.1778 h 0.8194 v -0.506 -0.506 l -0.743,-0.062 c -0.6306,-0.052 -0.7934,-0.122 -1.0769,-0.4612 -0.2271,-0.2717 -0.501,-0.4279 -0.8561,-0.4881 -0.2872,-0.049 -0.6256,-0.1169 -0.7521,-0.1516 -0.2833,-0.078 -0.6186,-0.6999 -0.6186,-1.1477 0,-0.2925 -0.055,-0.3329 -0.4507,-0.3329 -1.2163,0 -1.4344,-0.481 -1.3498,-2.9766 0.069,-2.0399 0.2494,-2.3754 1.2753,-2.3754 0.4556,0 0.5129,-0.038 0.5915,-0.3961 0.1078,-0.4911 0.5492,-0.7919 1.2831,-0.8747 0.4747,-0.053 0.5846,-0.1225 0.7056,-0.4429 0.1577,-0.4178 0.8158,-0.7666 1.4465,-0.7666 0.3704,0 0.3783,-0.015 0.4574,-0.8811 0.1003,-1.0977 0.4348,-1.4686 1.3248,-1.4686 0.5269,0 0.5763,-0.029 0.6558,-0.3914 0.1198,-0.5456 0.5218,-0.7834 1.3241,-0.7834 0.6442,0 0.6828,-0.019 0.7626,-0.3826 0.1209,-0.5508 0.3949,-0.7185 1.2945,-0.7923 l 0.7961,-0.065 0.065,-0.8928 c 0.1023,-1.3991 0.084,-1.3917 3.451,-1.3917 h 2.7694 l 0.3082,0.3282 c 0.2332,0.2481 0.3221,0.5186 0.3648,1.1096 l 0.056,0.7814 h 0.6471 c 0.6845,0 1.4102,0.4987 1.4102,0.969 0,0.1627 0.1518,0.2058 0.7239,0.2058 0.8213,0 1.3647,0.3809 1.3647,0.9565 0.8827,0.9212 1.7789,0.371 1.9174,1.892 l 0.079,0.9372 h 0.6396 c 0.6734,0 1.2806,0.3995 1.2806,0.8425 0,0.1386 0.1267,0.2018 0.4045,0.2018 0.6655,0 1.2616,0.3594 1.4269,0.8604 0.1346,0.4076 0.1907,0.445 0.669,0.445 0.4029,0 0.6091,0.087 0.9036,0.3815 l 0.3816,0.3816 v 1.9355 c 0,2.334 -0.1784,2.6534 -1.4402,2.6534 -0.3189,0 -0.3832,0.053 -0.3832,0.3179 0,0.8205 -0.6099,1.3791 -1.5057,1.3791 -0.2187,0 -0.4925,0.1625 -0.7702,0.4569 -0.372,0.3944 -0.5136,0.4569 -1.0356,0.4569 h -0.6046 v 0.5222 0.5221 h 0.7583 c 0.4646,0 0.8564,0.074 1.0116,0.1917 0.1394,0.1054 0.5003,0.1935 0.8021,0.1958 0.7595,0.01 1.1848,0.2324 1.3635,0.7265 0.1475,0.4079 0.1787,0.4222 1.0515,0.4847 1.2109,0.087 1.5399,0.3774 1.5399,1.3612 0,0.6581 0.018,0.6952 0.3328,0.6952 0.4258,0 1.0478,0.3202 1.1526,0.5933 0.045,0.1162 0.081,0.8527 0.081,1.6365 0,1.4893 -0.1692,1.9474 -0.719,1.9474 -0.1083,0 -0.2902,0.2333 -0.4043,0.5183 -0.1545,0.3863 -0.3205,0.5592 -0.6516,0.6789 -0.3242,0.1173 -0.4443,0.2392 -0.4443,0.4513 0,0.3754 -0.5826,0.8318 -1.0619,0.8318 -0.287,0 -0.374,0.061 -0.374,0.2611 0,0.5889 -0.4299,0.7832 -1.7332,0.7832 -1.2914,0 -1.7913,-0.1796 -1.7913,-0.6434 0,-0.1778 -0.1383,-0.2591 -0.5534,-0.3255 -0.5621,-0.09 -1.1436,-0.5036 -1.1436,-0.8137 0,-0.094 -0.1426,-0.2063 -0.3168,-0.25 -0.8534,-0.2142 -0.9076,-1.1492 -0.076,-1.3154 0.5579,-0.1116 0.4873,-0.3071 -0.1109,-0.3071 -1.2161,0 -1.6842,0.1389 -1.7609,0.5224 -0.093,0.4631 -0.4105,0.7763 -0.8838,0.871 -0.2414,0.048 -0.3759,0.1565 -0.3759,0.3023 0,0.4243 -0.5141,0.9107 -1.0537,0.997 -0.3563,0.057 -0.5128,0.1477 -0.5128,0.2973 0,0.1185 -0.091,0.3459 -0.2032,0.5055 -0.302,0.4312 -6.6787,0.4573 -7.1069,0.029 z m 6.1353,-1.5011 v -0.5875 h 0.7832 0.7833 v -0.6527 -0.6527 h 0.5874 0.5874 v -0.5802 -0.5803 l 0.6201,-0.04 0.62,-0.04 0.039,-0.7506 0.039,-0.7506 h 0.6462 0.6462 v -0.5221 c 0,-0.4352 0.043,-0.5222 0.2611,-0.5222 0.2498,0 0.261,-0.087 0.261,-2.0233 v -2.0234 h -0.5874 -0.5874 v 0.5222 0.5221 h -0.9138 c -0.8876,0 -0.9137,0.01 -0.9137,0.3264 0,0.3239 -0.01,0.3263 -1.1749,0.3263 -0.9573,0 -1.1748,0.036 -1.1748,0.1958 0,0.1686 -0.4352,0.1958 -3.133,0.1958 -2.6978,0 -3.1329,-0.027 -3.1329,-0.1958 0,-0.1595 -0.2176,-0.1958 -1.1748,-0.1958 -1.1662,0 -1.1749,0 -1.1749,-0.3263 0,-0.317 -0.026,-0.3264 -0.9138,-0.3264 h -0.9137 v -0.5221 -0.5222 h -0.5875 -0.5874 v 1.9581 c 0,1.8711 0.012,1.9581 0.2611,1.9581 0.2176,0 0.2611,0.087 0.2611,0.5221 v 0.5222 h 0.6527 0.6527 v 0.8485 0.8485 h 0.5874 0.5874 v 0.5874 0.5874 h 0.6527 0.6527 v 0.6527 0.6527 h 0.7832 0.7833 v 0.5875 0.5874 h 2.6107 2.6108 z m -14.3341,-0.098 0.04,-0.5547 0.8881,-0.039 0.888,-0.039 -0.04,-0.6139 -0.04,-0.6139 -1.6643,-0.037 -1.6644,-0.036 v -0.5835 c 0,-0.5614 -0.015,-0.5835 -0.3916,-0.5835 -0.3307,0 -0.3916,-0.051 -0.3916,-0.3264 0,-0.2756 0.061,-0.3263 0.3916,-0.3263 0.3605,0 0.3916,-0.036 0.3916,-0.4569 v -0.4569 h 1.1748 1.1749 v -0.5222 -0.5221 h 0.7179 0.718 v -1.3707 -1.3706 h -0.6649 c -0.5551,0 -0.6762,0.043 -0.7332,0.2611 -0.059,0.2237 -0.1781,0.261 -0.8363,0.261 h -0.768 v 0.5175 0.5174 l -1.2711,0.037 -1.2711,0.037 0.043,1.0117 0.043,1.0117 h -0.86 c -0.9637,0 -0.9203,-0.064 -0.7754,1.1422 l 0.082,0.6853 h 0.504 0.5039 v 0.5874 0.5874 h 0.5875 0.5874 v 0.5875 0.5874 h 0.7832 0.7832 v 0.5874 0.5874 h 0.5147 c 0.5121,0 0.5148,0 0.5548,-0.5548 z m -3.2886,-4.2751 c 0,-0.3605 0.036,-0.3916 0.4569,-0.3916 0.4206,0 0.4569,0.031 0.4569,0.3916 0,0.3605 -0.036,0.3916 -0.4569,0.3916 -0.4207,0 -0.4569,-0.031 -0.4569,-0.3916 z m 27.9353,4.2425 v -0.5874 h 0.7179 0.718 v -0.5874 -0.5875 h 0.5874 0.5874 v -0.5874 -0.5874 h 0.5222 0.5221 v -0.9138 -0.9137 h -0.7179 -0.718 v -0.9744 -0.9743 l -1.2727,-0.037 -1.2728,-0.037 -0.04,-0.6201 -0.04,-0.62 h -0.776 c -0.6145,0 -0.7761,-0.042 -0.7761,-0.2026 0,-0.1625 -0.136,-0.1948 -0.6854,-0.1632 -0.5557,0.032 -0.6832,0.083 -0.6744,0.2679 0.01,0.1256 0.021,0.7571 0.033,1.4033 l 0.022,1.1748 h 0.7179 0.718 v 0.4569 0.4569 h 1.1096 1.1096 v 0.4569 c 0,0.4206 0.031,0.4569 0.3916,0.4569 0.3307,0 0.3916,0.051 0.3916,0.3263 0,0.2756 -0.061,0.3264 -0.3916,0.3264 -0.3771,0 -0.3916,0.022 -0.3916,0.5874 v 0.5874 h -1.6318 -1.6317 v 0.6527 0.6527 h 0.8485 0.8485 v 0.5874 0.5874 h 0.5874 0.5875 z m 1.3053,-4.2425 c 0,-0.3481 0.044,-0.3916 0.3917,-0.3916 0.3481,0 0.3916,0.043 0.3916,0.3916 0,0.3481 -0.043,0.3916 -0.3916,0.3916 -0.3481,0 -0.3917,-0.043 -0.3917,-0.3916 z m -25.1939,1.1096 c 0,-0.1523 -0.1741,-0.1958 -0.7832,-0.1958 -0.6092,0 -0.7833,0.043 -0.7833,0.1958 0,0.1523 0.1741,0.1958 0.7833,0.1958 0.6091,0 0.7832,-0.043 0.7832,-0.1958 z m 23.4969,0 c 0,-0.1503 -0.1668,-0.1958 -0.7179,-0.1958 -0.5512,0 -0.718,0.046 -0.718,0.1958 0,0.1503 0.1668,0.1958 0.718,0.1958 0.5511,0 0.7179,-0.046 0.7179,-0.1958 z m -20.364,-0.065 c -0.7647,0.1006 -1.4417,-1.3878 -1.9569,-1.1103 -0.1768,0.4183 -0.1317,0.7741 -0.1317,1.2409 h 1.0443 c 0.6092,0 1.0443,-0.054 1.0443,-0.1306 z m 17.7533,-0.4569 c 0,-0.5411 -0.026,-0.5874 -0.3296,-0.5874 -0.2234,0 -0.3662,0.096 -0.4433,0.2991 -0.149,0.3918 -0.3679,0.5628 -0.9241,0.7217 -0.4015,0.1147 -0.3264,0.1319 0.62,0.1423 l 1.077,0.012 z m -7.7018,-5.5479 v -0.5221 h 2.0233 2.0234 v -0.5104 -0.5105 l 1.1096,-0.092 1.1095,-0.092 v -5.663 -5.663 h -0.979 -0.979 v -0.6527 -0.6527 h -1.0368 -1.0368 l -0.04,-0.5548 -0.04,-0.5548 h -4.3731 -4.373 l -0.04,0.5548 -0.04,0.5548 h -1.0368 -1.0368 v 0.6527 0.6527 h -0.979 -0.9791 v 4.876 c 0,2.6819 0.038,5.2372 0.084,5.6785 l 0.084,0.8023 h 0.953 0.9529 l 0.04,0.5548 0.04,0.5548 2.056,0.036 2.056,0.036 v 0.5189 0.5188 h 2.2191 2.2192 z m -7.7018,-2.4149 c 0,-0.4352 -0.022,-0.4569 -0.4569,-0.4569 -0.4351,0 -0.4569,-0.022 -0.4569,-0.4569 0,-0.4206 -0.031,-0.4569 -0.3916,-0.4569 h -0.3916 v -3.8422 -3.8422 l 0.359,-0.041 c 0.2991,-0.034 0.3658,-0.1121 0.3999,-0.4656 0.037,-0.3884 0.079,-0.4242 0.4895,-0.4242 0.4114,0 0.4486,-0.033 0.4486,-0.3916 v -0.3917 h 5.4826 5.4827 v 0.3917 c 0,0.3591 0.037,0.3916 0.4486,0.3916 0.4107,0 0.452,0.036 0.4895,0.4242 0.034,0.3535 0.1007,0.4312 0.3999,0.4656 l 0.359,0.041 v 3.8335 3.8336 l -0.359,0.041 c -0.2976,0.034 -0.3659,0.1126 -0.3994,0.4581 -0.037,0.3775 -0.086,0.4206 -0.5221,0.4569 -0.4383,0.036 -0.4855,0.078 -0.5227,0.4643 l -0.041,0.4243 h -5.4091 -5.4091 z m 2.8719,-5.2914 v -2.4848 l -1.3381,0.037 -1.338,0.037 -0.043,0.4481 c -0.09,0.9451 0.316,0.2712 0.5966,0.6859 l 0.4026,0.032 0.023,1.3142 v 0.718 h -0.4569 c -0.4545,0 -0.4569,0 -0.4569,0.5874 0,0.5843 0,0.5874 0.4569,0.5874 0.3698,0 0.4569,0.05 0.4569,0.2611 0,0.2343 0.087,0.2611 0.8485,0.2611 h 0.8485 z m 7.1399,2.231 c 0.045,-0.1709 0.2006,-0.2668 0.4773,-0.2937 l 0.4109,-0.04 v -2.1539 -2.1539 l -1.338,-0.037 -1.3381,-0.037 v 0.9183 0.2653 h 0.4569 0.4569 v 0.7179 1.3711 h -0.4569 -0.4569 v 0.8485 0.8485 h 0.8608 c 0.7427,0 0.8698,-0.035 0.9271,-0.2538 z m -14.0585,-1.1821 v -3.9162 h -0.4569 -0.4569 v 3.9162 3.9161 h 0.4569 0.4569 z m 19.9724,0 v -3.9162 h -0.4569 -0.4569 v 3.9162 3.9161 h 0.4569 0.4569 z m -21.8301,0.1631 0.035,-2.9044 h -0.5454 -0.5453 l 0.082,2.829 c 0.086,2.9579 0.1143,3.0853 0.6774,3.0133 0.2511,-0.032 0.2624,-0.1449 0.2962,-2.9379 z m 23.7031,1.5788 c 0.047,-0.765 0.085,-2.0867 0.085,-2.9371 v -1.5461 h -0.5222 -0.5221 v 2.9371 2.9371 h 0.437 0.4371 z m -25.5288,-1.8398 0.037,-1.4686 h -0.5265 -0.5264 v 1.4142 c 0,1.5679 0.018,1.617 0.5827,1.5617 l 0.3964,-0.039 z m 27.4414,0.025 v -1.5091 l -0.4895,0.041 c -0.4884,0.04 -0.4896,0.042 -0.5322,0.6932 -0.024,0.359 0,1.0198 0.043,1.4685 l 0.086,0.8159 h 0.4465 0.4465 z m -11.879,-10.4352 v -0.5874 h -2.2844 -2.2844 v 0.5874 0.5874 h 2.2844 2.2844 z"
             id="path315970-5-1"
             sodipodi:nodetypes="cssssscscssssssssssssccsscssccccscsssssscsssssssccsscsccssscccsssssscsssssscccsscsssscsssssssssssssscsssscccccccccccccccccccssscccccssssssssscccccsssccccccccccccccccccccccccccccssssscccccccccscscccccccsccccccccccccccsccsssssccccccccccccccccccccccssscscccccccsssssccccccccccccssssssssssssssscccscssssscsccccccccccccccccccccccccccccscccccccccccccsssscccscsscccsssscccsccscccscccccscccsssssccsscccccccccccccccsssccccccccccccccccccccccssscsscccccccsccccsscccccccccccccccccccc" />
          <path
             style="opacity:0.891355;fill:#ffffff;fill-opacity:0.975211;stroke-width:18.7741;stroke-linecap:square"
             d="m 1409.7528,1220.0592 c -0.046,-0.029 -0.095,-0.118 -0.11,-0.1966 -0.035,-0.1863 -0.2587,-0.2428 -0.9947,-0.2517 -0.4242,-0.01 -0.6029,0.019 -0.6029,0.08 0,0.068 -0.02,0.068 -0.088,0 -0.048,-0.048 -0.1973,-0.088 -0.3312,-0.088 -0.2458,0 -0.2642,-0.021 -0.3438,-0.3837 -0.024,-0.1105 -0.093,-0.201 -0.1522,-0.201 -0.06,0 -0.1083,-0.037 -0.1083,-0.082 0,-0.054 -0.1305,-0.071 -0.3882,-0.05 l -0.3882,0.032 v -0.3714 -0.3714 l 0.8334,0.011 c 0.4584,0.01 0.8605,0.04 0.8936,0.074 0.033,0.034 0.071,0.1403 0.085,0.235 0.04,0.2835 0.5265,0.4036 1.4302,0.353 0.6022,-0.034 0.769,-0.021 0.8556,0.066 0.059,0.059 0.089,0.156 0.066,0.2151 -0.036,0.093 0.2974,0.107 2.5427,0.1036 1.7252,0 2.7722,-0.035 3.1503,-0.097 0.3115,-0.051 0.5664,-0.065 0.5664,-0.031 0,0.034 0.083,0.01 0.1847,-0.059 0.134,-0.088 0.4151,-0.1312 1.0232,-0.158 0.4659,-0.021 0.8384,-0.068 0.8384,-0.1077 0,-0.039 0.046,-0.053 0.1028,-0.031 0.096,0.037 0.1558,-0.063 0.29,-0.4805 0.036,-0.1121 0.1456,-0.1279 0.8838,-0.1279 h 0.8428 v 0.3883 0.3884 l -0.4487,-0.033 c -0.3218,-0.023 -0.4343,-0.01 -0.3977,0.05 0.03,0.048 0,0.083 -0.062,0.083 -0.075,0 -0.1286,0.097 -0.1598,0.2923 -0.044,0.2779 -0.06,0.2924 -0.3115,0.2953 -1.89,0.021 -1.9917,0.03 -2.0952,0.1797 -0.056,0.08 -0.1365,0.1873 -0.1796,0.2375 -0.061,0.071 -0.8945,0.091 -3.7114,0.09 -1.9981,0 -3.6702,-0.025 -3.7158,-0.055 z"
             id="path45963-3-0" />
          <path
             style="opacity:0.891355;fill:#ffffff;fill-opacity:0.975211;stroke-width:18.7741;stroke-linecap:square"
             d="m 1398.5336,1221.0652 c -0.01,-0.4421 -0.014,-0.8426 -0.018,-0.89 -0.011,-0.1265 0.3393,-0.2006 1.162,-0.2459 0.4019,-0.022 0.8705,-0.057 1.0414,-0.078 l 0.3106,-0.038 v -0.4984 -0.4984 l 0.7042,-0.031 c 0.6601,-0.029 0.7141,-0.043 0.8615,-0.2279 0.1398,-0.1755 0.2063,-0.1972 0.6031,-0.1972 0.3262,0 0.4911,0.037 0.6142,0.1363 l 0.1683,0.1362 -0.5474,0.051 c -0.3011,0.028 -0.5839,0.074 -0.6285,0.1014 -0.044,0.028 -0.1106,0.1651 -0.1468,0.3057 -0.061,0.2354 -0.092,0.2586 -0.3905,0.2922 -0.2952,0.033 -0.3268,0.056 -0.3492,0.2522 -0.016,0.1435 0.019,0.2474 0.1054,0.3106 0.1527,0.1117 0.1091,0.1209 -0.4615,0.097 -0.3547,-0.015 -0.3839,0 -0.4284,0.1748 -0.026,0.1047 -0.029,0.2627 -0.01,0.351 0.063,0.2414 -0.1385,0.4308 -0.3664,0.3441 -0.2355,-0.09 -0.9141,-0.088 -1.1526,0 -0.1726,0.066 -0.1874,0.1062 -0.1874,0.5116 v 0.4403 h -0.4385 -0.4385 z"
             id="path46002-7-9" />
          <path
             style="opacity:0.891355;fill:#ffffff;fill-opacity:0.975211;stroke-width:18.7741;stroke-linecap:square"
             d="m 1409.2866,1212.0031 c 0,-0.2179 -0.1328,-0.3068 -0.5191,-0.3539 l -0.3934,-0.048 v -0.4751 c 0,-0.4748 10e-5,-0.475 0.2192,-0.4943 0.1206,-0.011 0.3261,-0.037 0.4568,-0.058 l 0.2375,-0.039 v -0.7276 c 0,-0.5979 -0.02,-1.2566 -0.1097,-1.2566 -0.06,0 -0.1096,-0.035 -0.1096,-0.079 0,-0.046 -0.119,-0.07 -0.2915,-0.058 -0.1616,0.012 -0.3316,-0.019 -0.3817,-0.069 -0.059,-0.059 -0.092,0.1857 -0.094,-0.292 v -0.7308 l 1.0983,0.02 c 0.6041,0.011 1.1806,-0.01 1.2811,-0.038 l 0.1827,-0.058 v 2.4345 2.4345 h -0.7855 c -0.6485,0 -0.7858,-0.02 -0.7868,-0.1108 z"
             id="path46041-4-3"
             sodipodi:nodetypes="sscssscsssssscsscccsss" />
          <path
             style="opacity:0.891355;fill:#ffffff;fill-opacity:0.975211;stroke-width:18.7741;stroke-linecap:square"
             d="m 1416.3034,1211.3271 v -0.7856 h 0.4665 c 0.5284,0 0.5538,-0.031 0.5556,-0.6669 0,-0.4805 -0.074,-1.3239 -0.1908,-1.3239 -0.055,0 -0.1005,-0.033 -0.1005,-0.073 0,-0.04 -0.1315,-0.073 -0.2923,-0.073 -0.1608,0 -0.2923,0.033 -0.2923,0.073 0,0.04 -0.033,0.073 -0.073,0.073 -0.045,0 -0.073,0.1733 -0.073,-0.3922 0,-0.8518 0.01,-0.9167 0.1279,-0.8607 0.07,0.033 0.6623,0.061 1.3155,0.062 h 1.1875 v 2.1018 2.1018 h -0.4044 c -0.3847,0 -0.4117,0.012 -0.5553,0.2557 -0.083,0.1407 -0.1724,0.259 -0.1985,0.2629 -0.026,0 -0.3683,0.012 -0.7602,0.018 l -0.7125,0.011 z"
             id="path46080-5-6"
             sodipodi:nodetypes="ccscsssssssccccsssscc" />
          <path
             style="opacity:0.891355;fill:#ffffff;fill-opacity:0.975211;stroke-width:18.7741;stroke-linecap:square"
             d="m 1419.9575,1204.0798 c 0,-0.4695 -0.1783,-0.567 -1.1521,-0.6306 -0.5862,-0.038 -0.7836,-0.079 -0.9029,-0.1873 -0.1462,-0.1322 -0.3362,-0.1382 -4.3932,-0.1382 h -4.2404 l -0.1092,0.1644 c -0.095,0.1434 -0.1721,0.1645 -0.5997,0.1645 -0.2697,0 -0.6779,0.038 -0.907,0.084 -0.3795,0.076 -0.426,0.071 -0.5215,-0.055 -0.058,-0.076 -0.1059,-0.1972 -0.1071,-0.269 0,-0.1192 0.053,-0.1263 0.6451,-0.082 0.3561,0.027 0.8329,0.026 1.0597,0 l 0.4122,-0.052 v -0.3784 c 0,-0.2081 0.021,-0.4524 0.045,-0.5428 l 0.044,-0.1645 h 3.2619 c 1.794,2e-4 3.7305,0.022 4.3033,0.048 l 1.0414,0.048 v 0.4558 c 0,0.3483 0.027,0.4664 0.1156,0.5002 0.064,0.024 0.5569,0.044 1.0962,0.044 h 0.9806 v 0.5847 c 0,0.3215 -0.016,0.5846 -0.037,0.5846 -0.02,0 -0.036,-0.08 -0.036,-0.1767 z"
             id="path46119-2-0" />
          <path
             style="opacity:0.891355;fill:#ffffff;fill-opacity:0.975211;stroke-width:18.7741;stroke-linecap:square"
             d="m 1405.0617,1205.1517 -0.013,-0.7491 h 0.3199 c 0.2975,0 0.8494,0.17 0.8494,0.2616 0,0.1619 -0.2184,0.3631 -0.5564,0.5125 -0.2188,0.097 -0.4134,0.176 -0.4323,0.176 -0.019,0 -0.04,-0.1069 -0.047,-0.2375 -0.01,-0.1307 -0.034,-0.01 -0.06,0.274 -0.047,0.5055 -0.048,0.5027 -0.06,-0.2375 z"
             id="path46158-5-6" />
          <path
             style="opacity:0.891355;fill:#ffffff;fill-opacity:0.975211;stroke-width:18.7741;stroke-linecap:square"
             d="m 1403.3497,1209.5391 -0.201,-0.031 v -1.3106 -1.3106 h 0.402 0.4019 v 1.352 1.352 l -0.2009,-0.011 c -0.1106,-0.01 -0.2915,-0.025 -0.402,-0.041 z"
             id="path46197-4-2" />
          <path
             style="opacity:0.891355;fill:#ffffff;fill-opacity:0.975211;stroke-width:18.7741;stroke-linecap:square"
             d="m 1401.2269,1209.5615 c 0.034,-0.8191 0.024,-1.0766 -0.039,-1.0371 -0.059,0.036 -0.085,-0.029 -0.085,-0.2076 v -0.2601 h 0.521 0.5209 l -0.05,1.0414 c -0.028,0.5728 -0.067,1.099 -0.087,1.1693 -0.028,0.097 -0.1151,0.1279 -0.3574,0.1279 -0.2282,0 -0.3414,0.037 -0.394,0.1279 -0.051,0.088 -0.059,-0.2142 -0.028,-0.9617 z"
             id="path46236-7-6" />
          <path
             style="opacity:0.891355;fill:#ffffff;fill-opacity:0.975211;stroke-width:18.7741;stroke-linecap:square"
             d="m 1399.4309,1211.9848 c -0.056,-0.1528 0.011,-2.5231 0.073,-2.563 0.077,-0.05 0.5633,-0.1958 0.6541,-0.1958 0.086,-1e-4 0.1012,0.1785 0.085,1.0414 -0.01,0.5728 -0.037,1.2104 -0.059,1.4168 -0.037,0.3485 -0.056,0.3786 -0.2642,0.4202 -0.3574,0.072 -0.4251,0.055 -0.4889,-0.1196 z"
             id="path46275-4-1" />
          <path
             style="opacity:0.891355;fill:#ffffff;fill-opacity:0.975211;stroke-width:18.7741;stroke-linecap:square"
             d="m 1425.0451,1209.9386 c -0.022,-0.2513 -0.055,-0.7774 -0.073,-1.1693 l -0.033,-0.7126 0.4509,2e-4 0.4509,3e-4 0.013,1.169 0.013,1.1691 h -0.3904 -0.3905 z"
             id="path46314-4-8" />
          <path
             style="opacity:0.891355;fill:#ffffff;fill-opacity:0.975211;stroke-width:18.7741;stroke-linecap:square"
             d="m 1423.2812,1209.4897 c -0.1257,-0.092 -0.1409,-0.2198 -0.1584,-1.3337 l -0.019,-1.2321 h 0.4367 0.4368 v 1.3338 1.3337 h -0.2784 c -0.1531,0 -0.3409,-0.046 -0.4174,-0.1017 z"
             id="path46353-3-7" />
          <path
             style="opacity:0.891355;fill:#ffffff;fill-opacity:0.975211;stroke-width:18.7741;stroke-linecap:square"
             d="m 1426.8691,1211.9026 c -0.023,-0.1155 -0.042,-0.7332 -0.042,-1.3725 0,-0.8659 0.023,-1.1698 0.091,-1.1913 0.05,-0.016 0.2476,-0.05 0.4385,-0.075 l 0.3471,-0.046 -2e-4,1.4478 -2e-4,1.4478 h -0.3963 c -0.378,0 -0.3982,-0.01 -0.4383,-0.2101 z"
             id="path46392-0-9" />
          <path
             style="opacity:0.891355;fill:#ffffff;fill-opacity:0.975211;stroke-width:18.7741;stroke-linecap:square"
             d="m 1427.7449,1221.5843 c 0.071,-0.7234 0.014,-0.7644 -1.0242,-0.7247 l -0.8094,0.031 v -0.406 c 0,-0.3972 0,-0.4065 -0.2181,-0.4307 -0.2944,-0.033 -0.3892,-0.1246 -0.416,-0.4009 -0.021,-0.2198 -0.04,-0.2333 -0.3563,-0.2538 -0.3275,-0.022 -0.3351,-0.028 -0.4019,-0.3289 l -0.068,-0.3072 -0.6394,-0.021 c -0.5753,-0.019 -0.6395,-0.035 -0.6395,-0.1619 0,-0.2074 0.223,-0.292 0.7694,-0.292 0.4054,0 0.4924,0.022 0.5207,0.1302 0.058,0.2234 0.4266,0.3299 1.0112,0.2924 l 0.5335,-0.034 0.051,0.6097 0.051,0.6098 h 0.4936 c 0.2715,0 0.8359,0.021 1.2541,0.046 l 0.7605,0.047 v 0.9583 0.9583 l -0.402,-0.022 c -0.2575,-0.014 -0.3669,0 -0.3044,0.045 0.075,0.051 0.062,0.076 -0.059,0.1072 -0.1514,0.04 -0.1547,0.026 -0.1076,-0.4516 z"
             id="path46431-7-2" />
          <path
             style="opacity:0.891355;fill:#ffffff;fill-opacity:0.975211;stroke-width:18.7741;stroke-linecap:square"
             d="m 1414.2023,1199.6711 c 0.3115,-0.014 0.8213,-0.014 1.1328,0 0.3115,0.014 0.057,0.025 -0.5664,0.025 -0.623,0 -0.8779,-0.011 -0.5664,-0.025 z"
             id="path46509-8-0" />
          <path
             style="opacity:0.891355;fill:#ffffff;fill-opacity:0.975211;stroke-width:18.7741;stroke-linecap:square"
             d="m 1416.3034,1211.3316 v -0.7901 h 0.4359 c 0.5446,0 0.6147,-0.099 0.5744,-0.8114 -0.023,-0.3965 -0.1283,-1.1459 -0.2545,-1.2635 -0.1661,-0.1548 -0.5622,-0.2013 -0.6402,-0.075 -0.1337,0.2163 -0.1156,0.606 -0.1156,-0.2266 v -0.9149 l 0.1903,0.048 c 0.1047,0.026 0.6966,0.052 1.3154,0.056 l 1.1251,0.01 10e-5,2.0974 v 2.0975 l -0.4184,0.022 c -0.3539,0.018 -0.4314,0.048 -0.5031,0.1925 -0.1489,0.2999 -0.2256,0.3265 -0.9751,0.3383 l -0.7343,0.012 z"
             id="path46704-6-2"
             sodipodi:nodetypes="ccssssscsscccssscc" />
          <path
             style="opacity:0.891355;fill:#ffffff;fill-opacity:0.975211;stroke-width:18.7741;stroke-linecap:square"
             d="m 1409.2877,1211.9938 c -2e-4,-0.1816 -0.1755,-0.2888 -0.5623,-0.3442 l -0.3513,-0.05 v -0.4742 c 0,-0.4738 10e-5,-0.4741 0.2192,-0.4934 0.7031,-0.062 0.6943,-0.055 0.6938,-0.5139 -2e-4,-0.2292 -0.021,-0.6876 -0.047,-1.0186 l -0.047,-0.6018 -0.4277,-0.1269 c -0.3749,-0.1114 -0.4279,-0.1499 -0.4286,-0.3118 0,-0.1016 -0.021,-0.3086 -0.046,-0.4599 l -0.045,-0.2751 1.1242,0.01 c 0.6183,0.01 1.2064,-0.012 1.3069,-0.039 l 0.1827,-0.049 v 2.4345 2.4344 h -0.7855 c -0.6764,0 -0.7855,-0.018 -0.7856,-0.1201 z"
             id="path49204-8-3" />
          <path
             style="opacity:0.891355;fill:#ffffff;fill-opacity:0.975211;stroke-width:18.7741;stroke-linecap:square"
             d="m 1416.3034,1211.3316 v -0.7901 h 0.4359 c 0.5121,0 0.5875,-0.082 0.5867,-0.6347 0,-0.4798 -0.1355,-1.2749 -0.2369,-1.3969 -0.055,-0.066 -0.2008,-0.092 -0.4344,-0.076 l -0.3514,0.024 10e-5,-0.6087 v -0.6087 l 0.201,0.043 c 0.1105,0.024 0.7025,0.05 1.3154,0.058 l 1.1145,0.016 v 2.1033 2.1034 h -0.3625 c -0.2008,0 -0.3964,0.041 -0.4385,0.091 -0.042,0.05 -0.1362,0.1703 -0.2098,0.2668 -0.1245,0.1633 -0.1852,0.1762 -0.8769,0.1872 l -0.7432,0.012 z"
             id="path49243-8-7" />
        </g>
        <path
           style="fill:#cccccc;stroke-width:1.89088;stroke-linecap:round;stroke-linejoin:round;stroke-miterlimit:1.6"
           d="m 1470.4732,1361.8259 c 0,-0.1532 0.016,-0.2159 0.036,-0.1393 0.02,0.077 0.02,0.2019 0,0.2785 -0.02,0.077 -0.036,0.014 -0.036,-0.1392 z"
           id="path2044" />
        <path
           style="fill:#333333;stroke-width:1.89088;stroke-linecap:round;stroke-linejoin:round;stroke-miterlimit:1.6"
           d="m 1452.5689,1370.3016 c -0.7956,-0.04 -1.3807,-0.1043 -1.6577,-0.1822 -0.2409,-0.068 -0.4354,-0.2702 -0.4745,-0.4939 -0.051,-0.2932 -0.1281,-0.3458 -0.6721,-0.4597 -0.6463,-0.1354 -0.9338,-0.4169 -0.9348,-0.9152 -3e-4,-0.1871 -0.096,-0.283 -0.3755,-0.376 -0.4186,-0.1393 -0.8083,-0.5028 -0.8794,-0.8204 -0.014,-0.063 -0.034,-0.1452 -0.044,-0.1815 -0.022,-0.083 -0.2876,-0.2086 -0.5621,-0.2669 -0.614,-0.1303 -1.4255,-0.144 -1.5859,-0.027 -0.058,0.043 -0.027,0.071 0.2473,0.2213 0.4066,0.2229 0.5635,0.3427 0.6385,0.4879 0.055,0.1065 0.055,0.1342 -0.01,0.2915 -0.082,0.2148 -0.3397,0.4437 -0.5341,0.4745 -0.2498,0.04 -0.3006,0.09 -0.3401,0.3402 -0.031,0.198 -0.2582,0.4476 -0.5255,0.5784 -0.1769,0.087 -0.3053,0.115 -0.6169,0.1366 -0.4556,0.032 -0.5136,0.066 -0.6119,0.3617 -0.1841,0.5543 -0.5541,0.692 -1.7748,0.6606 -1.0584,-0.027 -1.311,-0.1342 -1.5631,-0.6617 -0.1335,-0.2792 -0.2639,-0.3629 -0.5654,-0.3629 -0.4165,-10e-5 -0.955,-0.3925 -1.0461,-0.7623 -0.077,-0.3119 -0.1227,-0.3616 -0.5079,-0.5507 -0.4686,-0.2301 -0.5514,-0.3114 -0.6482,-0.6367 -0.093,-0.3117 -0.1912,-0.416 -0.4706,-0.4989 -0.2708,-0.081 -0.4614,-0.2517 -0.5421,-0.487 -0.1072,-0.313 -0.1523,-0.9638 -0.1288,-1.8589 0.037,-1.4227 0.1543,-1.6283 1.0273,-1.8073 0.4853,-0.1 0.5121,-0.1295 0.5587,-0.6259 0.113,-1.2013 0.3631,-1.4177 1.7112,-1.4807 0.4164,-0.019 0.6857,-0.049 0.7219,-0.079 0.032,-0.026 0.079,-0.1325 0.1049,-0.2358 0.036,-0.1421 0.098,-0.2374 0.2569,-0.3915 0.255,-0.2476 0.524,-0.3577 1.0765,-0.4407 0.3864,-0.058 0.5839,-0.1123 1.0754,-0.2955 0.2075,-0.077 0.3365,-0.091 0.9848,-0.106 l 0.746,-0.017 v -0.5271 -0.5272 l -0.4078,-0.027 c -0.8881,-0.059 -1.1113,-0.1369 -1.4088,-0.4897 -0.2396,-0.2843 -0.5289,-0.4214 -1.1426,-0.5418 -0.4614,-0.09 -0.5258,-0.1136 -0.6489,-0.2328 -0.2056,-0.1991 -0.3643,-0.557 -0.4107,-0.9261 -0.022,-0.174 -0.057,-0.3341 -0.079,-0.3557 -0.022,-0.022 -0.2409,-0.052 -0.4873,-0.068 -0.4822,-0.031 -0.6144,-0.066 -0.8164,-0.2203 -0.2903,-0.2215 -0.4022,-0.6407 -0.4341,-1.6263 -0.027,-0.8238 0.039,-2.1208 0.13,-2.5602 0.141,-0.6826 0.3451,-0.8516 1.0901,-0.9027 0.2298,-0.016 0.4467,-0.044 0.482,-0.062 0.07,-0.036 0.1268,-0.1609 0.1954,-0.4289 0.062,-0.2414 0.3508,-0.5245 0.6498,-0.6364 0.1256,-0.047 0.3874,-0.1111 0.582,-0.1426 0.4659,-0.075 0.5732,-0.1352 0.701,-0.391 0.1168,-0.2341 0.3014,-0.4458 0.4615,-0.5297 0.086,-0.045 0.3543,-0.056 1.338,-0.056 h 1.2306 l 0.023,4.4066 c 0.021,4.0018 0.036,4.6536 0.1286,5.3516 l 0.025,0.189 h 0.9471 0.9471 l 0.025,0.3282 c 0.014,0.1806 0.035,0.4284 0.047,0.5508 l 0.022,0.2225 0.9582,0.026 c 0.527,0.014 1.2568,0.026 1.6219,0.026 0.3651,0 0.8546,0.012 1.0878,0.026 l 0.4239,0.026 v 0.5112 0.5112 h 2.2481 2.2481 v -0.5172 -0.5173 h 2.0093 2.0093 v -0.5135 -0.5135 l 0.189,-0.023 c 0.1039,-0.013 0.5471,-0.051 0.9848,-0.085 0.4376,-0.034 0.8539,-0.071 0.9251,-0.082 l 0.1293,-0.02 v -4.9519 -4.9518 l 1.2235,3e-4 1.2235,4e-4 0.2064,0.1184 c 0.2298,0.1318 0.3905,0.3174 0.4308,0.4976 0.067,0.2993 0.045,0.2851 0.5322,0.3358 0.7017,0.073 1.0674,0.3121 1.323,0.8653 0.083,0.1796 0.1828,0.343 0.2218,0.3631 0.039,0.02 0.2392,0.049 0.4448,0.064 0.2055,0.015 0.4358,0.053 0.5116,0.085 0.076,0.032 0.2792,0.1951 0.4518,0.3632 l 0.314,0.3055 v 1.4213 c 0,2.7893 -0.1119,3.0672 -1.2638,3.1379 -0.2464,0.015 -0.4678,0.047 -0.492,0.072 -0.024,0.024 -0.058,0.1857 -0.076,0.3588 -0.075,0.7482 -0.5043,1.1558 -1.3284,1.2626 -0.1987,0.026 -0.4189,0.077 -0.4893,0.1137 -0.07,0.037 -0.2729,0.2023 -0.4499,0.3679 -0.1771,0.1656 -0.3881,0.3292 -0.4689,0.3636 -0.097,0.041 -0.3206,0.069 -0.6542,0.082 l -0.5073,0.019 v 0.5318 0.5319 h 0.5715 c 0.6507,0 0.9213,0.04 1.1811,0.1763 0.2548,0.1332 0.4273,0.1723 0.9613,0.2179 0.7391,0.063 0.989,0.2121 1.2232,0.7289 0.067,0.1472 0.1626,0.2947 0.2131,0.3278 0.052,0.034 0.2732,0.079 0.5073,0.1032 1.0834,0.1123 1.4437,0.2187 1.6411,0.4845 0.1532,0.2064 0.1917,0.3723 0.2215,0.9549 0.016,0.3104 0.047,0.5657 0.072,0.5908 0.024,0.024 0.1805,0.06 0.347,0.078 0.443,0.05 0.865,0.2651 1.0388,0.5303 0.067,0.1016 0.076,0.2252 0.091,1.2132 0.029,1.804 -0.09,2.2895 -0.5806,2.3755 -0.2377,0.042 -0.3069,0.1105 -0.5045,0.5022 -0.1027,0.2036 -0.2299,0.4143 -0.2826,0.4682 -0.053,0.054 -0.2439,0.1703 -0.4247,0.2587 -0.3502,0.171 -0.3566,0.1795 -0.447,0.5927 -0.064,0.2921 -0.641,0.6621 -1.0328,0.6621 -0.2473,0 -0.3347,0.087 -0.3807,0.378 -0.031,0.1957 -0.062,0.2615 -0.1748,0.3655 -0.2285,0.2114 -0.4599,0.2592 -1.3585,0.2807 -0.7715,0.018 -1.1404,-0.01 -1.5089,-0.1128 -0.2017,-0.057 -0.4196,-0.2711 -0.4196,-0.4127 0,-0.2369 -0.134,-0.337 -0.5571,-0.4162 -0.5313,-0.099 -1.0815,-0.4669 -1.1405,-0.7617 -0.028,-0.1409 -0.1672,-0.2603 -0.3667,-0.3149 -0.3073,-0.084 -0.5652,-0.3278 -0.6198,-0.5856 -0.038,-0.1795 0.09,-0.4538 0.2619,-0.5591 0.074,-0.045 0.2402,-0.11 0.3695,-0.1435 0.4325,-0.1122 0.4486,-0.2665 0.032,-0.3036 -0.3643,-0.032 -1.281,0.026 -1.5084,0.097 -0.3061,0.095 -0.4227,0.2117 -0.5045,0.5059 -0.056,0.2031 -0.1082,0.2885 -0.2758,0.4558 -0.1699,0.1694 -0.2556,0.2204 -0.4849,0.2887 -0.3716,0.1106 -0.4411,0.1651 -0.4742,0.372 -0.064,0.4001 -0.4288,0.7696 -0.892,0.9035 -0.1458,0.042 -0.3114,0.087 -0.3681,0.099 -0.1592,0.034 -0.3148,0.1758 -0.3148,0.2867 0,0.1622 -0.1893,0.4913 -0.3098,0.5384 -0.1782,0.07 -0.6713,0.1442 -1.2618,0.1908 -0.7459,0.059 -2.9836,0.084 -3.8007,0.043 z m 4.2334,-1.279 c 0.014,-0.068 0.025,-0.3276 0.025,-0.576 v -0.4518 l 0.766,-0.011 0.7659,-0.011 0.011,-0.6466 0.011,-0.6465 h 0.5759 0.5759 v -0.5912 -0.5912 l 0.6267,-0.036 0.6267,-0.035 0.035,-0.7461 0.035,-0.746 h 0.6509 0.651 v -0.4152 c 0,-0.532 0.026,-0.6005 0.2369,-0.6343 0.1272,-0.02 0.1741,-0.05 0.2112,-0.1349 0.034,-0.078 0.051,-0.6483 0.061,-2.0285 l 0.013,-1.9198 h -0.5993 -0.5992 v 0.5137 0.5138 l -0.8256,0.014 c -0.9626,0.016 -1.0047,0.028 -1.0047,0.2856 0,0.2756 -0.058,0.3195 -0.464,0.3505 -0.1934,0.015 -0.6381,0.03 -0.9883,0.034 -0.7194,0.01 -0.8194,0.026 -0.8748,0.1501 -0.082,0.1839 -0.1439,0.1876 -3.1239,0.1876 -1.5428,0 -2.8716,-0.014 -2.9529,-0.031 -0.1034,-0.022 -0.1631,-0.063 -0.1989,-0.1375 -0.066,-0.1373 -0.1607,-0.1605 -0.6716,-0.1653 -0.2318,0 -0.668,-0.016 -0.9693,-0.03 -0.6213,-0.03 -0.6976,-0.066 -0.6988,-0.3293 -3e-4,-0.078 -0.016,-0.1654 -0.034,-0.1944 -0.059,-0.093 -0.3272,-0.1245 -1.0696,-0.1254 h -0.7261 v -0.5172 -0.5173 h -0.599 -0.599 l 0.012,1.88 c 0.013,2.0409 0.015,2.0591 0.2247,2.0591 0.2328,0 0.2633,0.065 0.2789,0.5936 l 0.014,0.4807 h 0.6524 0.6523 v 0.8356 0.8355 h 0.5769 0.577 v 0.5968 0.5969 h 0.6565 0.6565 v 0.6366 0.6366 h 0.7759 0.7758 v 0.5968 0.5969 h 2.6211 2.6211 z m -14.4353,-0.081 c 0.047,-0.047 0.077,-0.196 0.107,-0.5432 l 0.042,-0.4782 0.3021,-0.022 c 0.1661,-0.012 0.568,-0.034 0.8931,-0.048 l 0.5911,-0.025 -0.023,-0.2444 c -0.013,-0.1343 -0.034,-0.4161 -0.048,-0.626 l -0.025,-0.3818 -0.8377,-0.026 c -0.4608,-0.014 -1.0738,-0.026 -1.3624,-0.026 -0.2886,0 -0.6618,-0.012 -0.8292,-0.026 l -0.3044,-0.026 v -0.4915 c 0,-0.6011 -0.029,-0.6507 -0.3806,-0.6507 -0.3257,0 -0.3754,-0.039 -0.3754,-0.2949 0,-0.1253 0.021,-0.2301 0.052,-0.2553 0.028,-0.024 0.1728,-0.055 0.3212,-0.07 0.1484,-0.015 0.2954,-0.053 0.3266,-0.084 0.041,-0.041 0.057,-0.1602 0.057,-0.4319 v -0.3752 h 1.1738 1.1737 v -0.5371 -0.5371 h 0.7162 0.7162 v -1.3985 -1.3984 l -0.567,0.022 c -0.3118,0.012 -0.6162,0.041 -0.6763,0.064 -0.073,0.028 -0.1313,0.097 -0.1747,0.2058 -0.042,0.1048 -0.1025,0.1778 -0.1691,0.2038 -0.057,0.022 -0.4038,0.05 -0.7704,0.062 l -0.6664,0.022 v 0.507 0.507 l -1.2776,0.029 -1.2776,0.029 0.024,0.3629 c 0.013,0.1996 0.035,0.6539 0.049,1.0095 l 0.026,0.6465 h -0.6915 c -0.3803,0 -0.7346,0.016 -0.7873,0.031 -0.053,0.015 -0.1322,0.075 -0.1766,0.1349 -0.08,0.1074 -0.08,0.1121 -0.01,0.7351 0.039,0.3449 0.08,0.7032 0.092,0.7962 l 0.022,0.1691 h 0.5119 0.5118 v 0.5968 0.5969 h 0.577 0.5769 v 0.5769 0.5769 h 0.7759 0.7758 v 0.5703 c 0,0.3137 0.014,0.584 0.03,0.6006 0.016,0.017 0.2307,0.024 0.4763,0.016 0.3468,-0.011 0.461,-0.028 0.5115,-0.079 z m 24.7654,-0.5113 v -0.5968 h 0.7162 0.7162 v -0.577 -0.5769 h 0.5769 0.5769 v -0.5968 -0.5969 h 0.5379 0.5379 l -0.011,-0.9251 -0.011,-0.925 -0.7261,-0.011 -0.7261,-0.011 v -0.9739 -0.9739 l -0.4676,-0.01 c -0.2571,0 -0.8256,-0.016 -1.2632,-0.03 l -0.7958,-0.024 -0.04,-0.6167 -0.04,-0.6167 -0.7294,-0.02 c -0.6632,-0.018 -0.7346,-0.027 -0.7859,-0.097 -0.031,-0.042 -0.056,-0.1 -0.056,-0.1279 0,-0.091 -0.1481,-0.133 -0.4649,-0.1328 -0.3973,3e-4 -0.7671,0.061 -0.8444,0.138 -0.051,0.051 -0.059,0.1927 -0.051,0.8862 0,0.4541 0.02,1.063 0.034,1.3529 l 0.025,0.5272 h 0.7108 0.7108 v 0.4576 0.4576 h 1.1141 1.1141 v 0.3607 c 0,0.1984 0.017,0.3929 0.038,0.4324 0.029,0.054 0.1092,0.079 0.3283,0.1002 0.1594,0.016 0.3123,0.047 0.3396,0.07 0.072,0.06 0.063,0.4102 -0.013,0.4863 -0.043,0.043 -0.1376,0.062 -0.3052,0.062 -0.3732,0 -0.3882,0.025 -0.3882,0.6428 v 0.5111 h -1.6314 -1.6313 v 0.6764 0.6764 h 0.8356 0.8355 v 0.5968 0.5969 h 0.6168 0.6167 z m -24.051,-3.002 c 0.1038,-0.043 0.138,-0.082 0.138,-0.1544 0,-0.1593 -0.1723,-0.2009 -0.8211,-0.1983 -0.4654,0 -0.5889,0.015 -0.6727,0.07 -0.146,0.096 -0.1179,0.2276 0.061,0.2887 0.206,0.07 1.1224,0.066 1.2944,-0.01 z m 23.4864,0.014 c 0.1605,-0.056 0.2055,-0.1873 0.095,-0.2769 -0.1638,-0.1327 -1.1043,-0.1417 -1.3108,-0.013 -0.1514,0.095 -0.1037,0.2564 0.09,0.3039 0.1573,0.039 1.0053,0.028 1.1264,-0.014 z m -20.5653,-0.1171 c 0.3497,-0.045 0.4314,-0.098 0.2,-0.1293 -0.2144,-0.029 -0.4816,-0.2115 -0.9694,-0.663 -0.4327,-0.4004 -0.5729,-0.4908 -0.7328,-0.4723 -0.1742,0.02 -0.223,0.179 -0.2396,0.7783 l -0.015,0.5272 h 0.7301 c 0.4015,-7e-4 0.8634,-0.019 1.0263,-0.04 z m 18.099,-0.5143 c -0.01,-0.3738 -0.029,-0.5713 -0.062,-0.6045 -0.073,-0.072 -0.4202,-0.061 -0.5401,0.017 -0.056,0.037 -0.1609,0.1783 -0.2334,0.315 -0.1658,0.3121 -0.3685,0.4688 -0.7864,0.6079 -0.1762,0.059 -0.3204,0.1225 -0.3204,0.1417 0,0.038 0.359,0.057 1.326,0.07 l 0.6297,0.01 z m -19.4497,-12.2568 v -3.939 h -0.4576 -0.4575 v 3.939 3.9391 h 0.4575 0.4576 z m 19.9739,0 v -3.9403 l -0.4675,0.011 -0.4675,0.011 -0.01,3.8794 c -0.01,2.1337 0,3.9018 0.01,3.9291 0.014,0.036 0.1474,0.05 0.4778,0.05 h 0.4588 v -3.9403 z m -22.0155,3.084 c 0.026,-0.01 0.067,-0.083 0.091,-0.166 0.048,-0.1645 0.1121,-2.3567 0.1295,-4.3989 l 0.011,-1.2633 -0.5702,10e-5 h -0.5701 l 0.023,0.3879 c 0.012,0.2134 0.032,0.7819 0.044,1.2633 0.041,1.6417 0.1022,3.1428 0.1426,3.4809 0.047,0.3948 0.1532,0.663 0.2825,0.7147 0.081,0.032 0.2809,0.023 0.4173,-0.019 z m 23.8225,-0.1085 c 0.07,-0.5558 0.1788,-3.5953 0.1813,-5.0731 v -0.6465 h -0.557 -0.557 v 2.9443 2.9444 h 0.4551 0.4551 z m -25.7301,-1.5669 0.2402,-0.025 0.024,-1.0193 c 0.013,-0.5607 0.034,-1.2297 0.046,-1.4869 l 0.022,-0.4675 h -0.565 -0.5651 l 0.021,1.323 c 0.028,1.7832 0.015,1.7553 0.7758,1.6758 z m 27.7289,-0.6812 c -0.012,-0.3884 -0.023,-1.0711 -0.024,-1.5171 v -0.8108 l -0.3647,0.028 c -0.4278,0.034 -0.5275,0.065 -0.5968,0.1887 -0.1065,0.19 -0.088,1.6588 0.033,2.628 l 0.024,0.1889 h 0.4768 0.4768 z"
           id="path2198" />
        <path
           style="fill:#333333;fill-opacity:1;stroke-width:1.89088;stroke-linecap:round;stroke-linejoin:round;stroke-miterlimit:1.6"
           d="m 1448.6899,1356.7703 -0.024,-0.4183 -0.3978,-0.04 -0.3979,-0.04 -0.024,-0.3581 c -0.027,-0.4148 -0.1676,-0.5571 -0.5493,-0.5571 h -0.2641 l 0.021,-3.7998 0.021,-3.7998 0.2387,-0.026 c 0.31,-0.034 0.3806,-0.1093 0.4809,-0.5143 0.082,-0.3292 0.09,-0.3357 0.4774,-0.3748 l 0.3945,-0.04 0.024,-0.378 0.024,-0.378 h 5.4467 5.4467 v 0.3024 c 0,0.3773 0.1123,0.4934 0.4775,0.4934 0.3425,0 0.4774,0.1153 0.4774,0.4081 0,0.2505 0.1842,0.4672 0.3971,0.4672 0.4195,0 0.3987,-0.202 0.3987,3.8671 v 3.7704 l -0.3212,0.051 c -0.3409,0.054 -0.4746,0.2045 -0.4746,0.5324 0,0.2529 -0.1222,0.3418 -0.5437,0.3954 -0.1896,0.024 -0.3663,0.065 -0.3927,0.092 -0.026,0.026 -0.068,0.1995 -0.093,0.3847 l -0.045,0.3367 -5.3871,0.021 -5.3872,0.02 z m 2.8805,-5.2725 v -2.5067 l -0.6963,5e-4 c -0.3829,2e-4 -0.9903,0.023 -1.3497,0.051 l -0.6533,0.051 -0.053,0.3527 c -0.067,0.4481 0.055,0.7383 0.3115,0.7383 0.1039,0 0.3016,0.039 0.4394,0.087 l 0.2506,0.087 v 0.943 0.943 l -0.4178,0.024 -0.4177,0.024 -0.024,0.5499 c -0.027,0.621 0.015,0.6804 0.4839,0.6823 0.2139,6e-4 0.3153,0.041 0.3506,0.1405 0.1108,0.3109 0.1908,0.3382 0.9896,0.3382 h 0.786 z m 7.1642,2.2634 c 0.1475,-0.1794 0.2906,-0.2566 0.5371,-0.2897 l 0.336,-0.045 v -2.1661 -2.1661 l -0.6565,-0.051 c -0.3611,-0.028 -0.9698,-0.051 -1.3528,-0.052 l -0.6963,-5e-4 v 0.719 c 0,0.6862 0.01,0.7152 0.1539,0.6366 0.235,-0.1257 0.6177,-0.101 0.6731,0.043 0.027,0.069 0.048,0.5169 0.048,0.9947 v 0.8689 h -0.4376 -0.4377 v 0.8753 0.8754 l 0.8157,6e-4 c 0.8143,6e-4 0.8159,3e-4 1.0168,-0.2439 z"
           id="path4516" />
        <path
           style="fill:#333333;fill-opacity:1;stroke-width:1.89088;stroke-linecap:round;stroke-linejoin:round;stroke-miterlimit:1.6"
           d="m 1443.4933,1347.4791 c 0.088,-0.038 0.2935,-0.071 0.4576,-0.074 0.446,-0.01 0.5817,-0.1934 0.6456,-0.8806 0.1033,-1.1115 0.4513,-1.5123 1.3129,-1.5123 0.4449,0 0.495,-0.037 0.7503,-0.557 0.217,-0.4419 0.4555,-0.563 1.235,-0.6273 0.6343,-0.052 0.6352,-0.053 0.8459,-0.5891 0.1512,-0.3846 0.4528,-0.5158 1.343,-0.5843 l 0.6709,-0.052 0.055,-0.7474 c 0.1138,-1.5496 -0.024,-1.4893 3.4827,-1.5235 l 2.6819,-0.026 0.2404,0.2643 c 0.2971,0.3266 0.3774,0.572 0.4445,1.3584 l 0.053,0.6167 h 0.4949 c 0.6989,0 1.2508,0.2804 1.4787,0.7513 0.1786,0.3688 0.3398,0.4424 0.9697,0.4424 0.576,0 1.1812,0.4104 1.1812,0.8011 0,0.1756 0.3153,0.406 1.0352,0.7563 0.3019,0.147 0.6065,0.3551 0.6769,0.4625 0.071,0.1083 0.1675,0.5334 0.2168,0.9543 l 0.089,0.759 0.4832,0.028 c 0.2658,0.015 0.01,0.035 -0.5712,0.043 l -1.0544,0.015 v -0.7162 -0.7162 h -0.9947 -0.9947 v -0.6366 -0.6366 l -0.6167,-6e-4 c -0.3392,-4e-4 -0.8047,-0.023 -1.0345,-0.051 -0.4076,-0.049 -0.4178,-0.056 -0.4178,-0.3076 0,-0.1417 -0.022,-0.3694 -0.05,-0.5062 l -0.05,-0.2487 h -4.4066 -4.4066 v 0.4312 c 0,0.7088 0.043,0.6829 -1.1226,0.6829 h -1.0259 v 0.6366 0.6366 h -0.955 -0.9549 v 0.7162 0.7162 l -1.1738,-0.01 c -0.7298,0 -1.1135,-0.032 -1.0146,-0.074 z m 13.0739,-5.4311 0.023,-0.6168 h -2.3509 -2.3509 v 0.5836 c 0,0.321 0.024,0.608 0.054,0.6378 0.03,0.03 1.0772,0.045 2.3276,0.033 l 2.2734,-0.021 z"
           id="path4555" />
        <path
           style="fill:#333333;fill-opacity:1;stroke-width:1.89088;stroke-linecap:round;stroke-linejoin:round;stroke-miterlimit:1.6"
           d="m 1451.7094,1370.2419 c -0.8598,-0.089 -1.0798,-0.1963 -1.2576,-0.6112 -0.1096,-0.2556 -0.2033,-0.3552 -0.3696,-0.3927 -0.6497,-0.1466 -0.8143,-0.2101 -1.0068,-0.3885 -0.118,-0.1095 -0.2106,-0.2815 -0.2106,-0.3915 0,-0.342 -0.09,-0.4548 -0.5155,-0.6427 -0.4096,-0.1812 -0.6822,-0.4649 -0.7948,-0.8271 -0.034,-0.1102 -0.1766,-0.2366 -0.3486,-0.3093 -0.3376,-0.1428 -1.7173,-0.2394 -1.7879,-0.1252 -0.026,0.042 0.1369,0.1987 0.3618,0.3485 0.5517,0.3674 0.6161,0.4875 0.4113,0.7668 -0.089,0.1219 -0.2843,0.2837 -0.4331,0.3595 -0.164,0.084 -0.3266,0.2571 -0.4131,0.441 -0.182,0.3865 -0.4758,0.5578 -1.1044,0.6438 -0.2756,0.038 -0.5118,0.1003 -0.5248,0.1391 -0.013,0.039 -0.086,0.196 -0.1628,0.3491 -0.2174,0.435 -0.4726,0.5182 -1.5715,0.512 -1.0808,-0.01 -1.3734,-0.1023 -1.6302,-0.5357 -0.2297,-0.3877 -0.3076,-0.4537 -0.5362,-0.4537 -0.1158,0 -0.3693,-0.077 -0.5635,-0.1709 -0.286,-0.1384 -0.3872,-0.248 -0.5331,-0.5769 -0.1554,-0.3502 -0.2405,-0.4355 -0.6188,-0.62 -0.3813,-0.1859 -0.4533,-0.2587 -0.5504,-0.557 -0.094,-0.2872 -0.1724,-0.3724 -0.4841,-0.5229 -0.5998,-0.2897 -0.6533,-0.4575 -0.6533,-2.0484 0,-1.761 0.068,-1.9102 0.9606,-2.1103 0.2117,-0.047 0.4265,-0.1208 0.4774,-0.163 0.051,-0.042 0.1166,-0.3199 0.1458,-0.6169 0.063,-0.6398 0.2652,-1.0153 0.6282,-1.167 0.1429,-0.06 0.6064,-0.1339 1.0301,-0.165 l 0.7704,-0.057 0.089,-0.2687 c 0.1363,-0.4128 0.7942,-0.8239 1.3186,-0.8239 0.1016,0 0.4589,-0.09 0.7941,-0.199 0.464,-0.1514 0.7779,-0.1989 1.3155,-0.1989 h 0.706 v -0.5571 -0.557 h -0.378 c -0.7159,-0.01 -1.022,-0.1118 -1.4533,-0.4996 -0.3558,-0.3199 -0.4899,-0.3845 -1.0466,-0.5041 -0.7519,-0.1616 -0.9584,-0.3602 -1.1086,-1.066 -0.051,-0.2384 -0.1324,-0.4598 -0.1815,-0.492 -0.049,-0.032 -0.2613,-0.059 -0.4713,-0.06 -0.4783,0 -0.8081,-0.1682 -0.9894,-0.4999 -0.1221,-0.2234 -0.1407,-0.4827 -0.1407,-1.9682 0,-2.4383 0.091,-2.6829 1.0464,-2.7978 0.5947,-0.072 0.713,-0.1421 0.7844,-0.4671 0.068,-0.308 0.523,-0.6942 0.8931,-0.7574 0.6961,-0.1189 0.8961,-0.2016 1.0082,-0.4171 0.1715,-0.3297 0.4542,-0.5487 0.784,-0.6076 0.1641,-0.029 0.2984,-0.083 0.2984,-0.1201 0,-0.037 0.1629,-0.091 0.3621,-0.1213 0.4172,-0.062 0.4714,-0.1501 0.5478,-0.885 0.027,-0.2592 0.1374,-0.6536 0.2455,-0.8764 0.1642,-0.3382 0.2475,-0.4203 0.5047,-0.4974 0.1694,-0.051 0.4543,-0.092 0.6332,-0.092 0.3412,0 0.3539,-0.011 0.7564,-0.6367 0.2189,-0.3404 0.5082,-0.4877 1.0408,-0.53 0.6586,-0.052 0.713,-0.081 0.9228,-0.482 0.2492,-0.4766 0.5693,-0.6432 1.3595,-0.7075 0.3246,-0.026 0.6141,-0.071 0.6434,-0.099 0.029,-0.028 0.076,-0.3735 0.1039,-0.7674 0.064,-0.9054 0.093,-1.0185 0.2948,-1.1443 0.4101,-0.2561 0.8301,-0.2919 3.404,-0.29 h 2.5826 l 0.1829,0.2707 c 0.2206,0.3266 0.3193,0.674 0.3866,1.3607 0.028,0.2844 0.056,0.5226 0.062,0.5292 0.01,0.01 0.2446,0.023 0.5291,0.035 0.2845,0.013 0.5531,0.042 0.5968,0.065 0.044,0.023 0.1327,0.05 0.1975,0.06 0.065,0.01 0.1305,0.056 0.1459,0.1017 0.015,0.046 0.061,0.084 0.1009,0.084 0.1063,0 0.3863,0.2968 0.3316,0.3514 -0.026,0.025 0,0.046 0.051,0.046 0.054,0 0.077,0.033 0.052,0.073 -0.096,0.1552 0.2158,0.3145 0.7314,0.3738 0.6395,0.073 0.5619,0.056 0.8562,0.1908 0.2815,0.1286 0.513,0.3835 0.5155,0.5675 0,0.1785 0.4436,0.5515 0.8779,0.7422 0.1965,0.086 0.3836,0.1937 0.4158,0.2387 0.032,0.045 0.059,0.057 0.06,0.026 0,-0.1175 0.3801,0.3042 0.4419,0.4935 0.079,0.2423 0.089,0.302 0.1585,0.955 0.03,0.2845 0.072,0.5351 0.093,0.557 0.021,0.022 0.2843,0.047 0.5859,0.056 0.7273,0.022 1.2036,0.2793 1.2804,0.6909 0.036,0.1905 0.1555,0.2489 0.7269,0.3542 0.5838,0.1075 0.8861,0.3239 1.133,0.8112 0.1954,0.3855 0.1977,0.3871 0.6811,0.4417 0.3983,0.045 0.5549,0.1102 0.876,0.364 l 0.3911,0.3091 -6e-4,1.53 c -7e-4,1.6141 -0.085,2.4182 -0.2861,2.725 -0.1471,0.2245 -0.4969,0.3568 -0.9434,0.3568 -0.4328,0 -0.5721,0.1227 -0.6248,0.5502 -0.078,0.6316 -0.4628,0.9828 -1.2576,1.1472 -0.4368,0.09 -0.6099,0.1785 -1.0187,0.5188 -0.4889,0.4069 -0.4966,0.4099 -1.0455,0.4099 h -0.5529 v 0.557 0.557 h 0.6735 c 0.4819,0 0.7863,0.044 1.0703,0.1565 0.2183,0.086 0.6685,0.1901 1.0004,0.2313 0.7016,0.087 0.9354,0.2161 1.1483,0.6333 0.085,0.1664 0.2017,0.3415 0.2596,0.389 0.058,0.048 0.4441,0.1274 0.8581,0.1774 1.2091,0.1461 1.4342,0.3404 1.4961,1.2915 0.044,0.6716 0.1057,0.7816 0.4414,0.7816 0.3204,0 0.9094,0.2894 1.0238,0.5031 0.057,0.1066 0.092,0.671 0.095,1.5241 0,1.1904 -0.015,1.3929 -0.1516,1.6684 -0.1122,0.2259 -0.2328,0.3389 -0.4311,0.4039 -0.2148,0.071 -0.3286,0.1886 -0.5173,0.5366 -0.184,0.3395 -0.3359,0.5 -0.6349,0.6709 -0.2916,0.1668 -0.4096,0.2892 -0.4577,0.4747 -0.086,0.3312 -0.5442,0.7235 -0.9182,0.7857 -0.4623,0.077 -0.4756,0.086 -0.5303,0.3783 -0.1016,0.5416 -0.5332,0.6882 -1.9505,0.6623 -0.9714,-0.018 -1.4428,-0.1802 -1.5211,-0.5244 -0.05,-0.22 -0.2705,-0.3573 -0.7708,-0.4803 -0.3813,-0.094 -0.7991,-0.4123 -0.9046,-0.69 -0.043,-0.1136 -0.2106,-0.248 -0.4216,-0.3385 -0.36,-0.1543 -0.6072,-0.4181 -0.6072,-0.648 0,-0.2291 0.2969,-0.5185 0.6363,-0.6201 0.5836,-0.1749 0.3479,-0.2888 -0.5797,-0.2803 -0.9686,0.01 -1.1882,0.1003 -1.3839,0.5754 -0.1641,0.3984 -0.3925,0.6282 -0.7335,0.7379 -0.3753,0.1208 -0.4592,0.1935 -0.5231,0.4528 -0.086,0.3486 -0.5118,0.7261 -0.9693,0.8591 -0.4416,0.1284 -0.5314,0.2011 -0.6253,0.5066 -0.092,0.3008 -0.2396,0.4042 -0.6945,0.4884 -0.5472,0.1012 -4.6969,0.1587 -5.4921,0.076 z m 5.1131,-1.6748 v -0.5571 h 0.7461 0.746 l 0.05,-0.2486 c 0.027,-0.1368 0.05,-0.4412 0.05,-0.6764 v -0.4278 h 0.5535 0.5536 l 0.023,-0.5769 0.023,-0.5769 0.5969,-0.04 c 0.5957,-0.04 0.5968,-0.04 0.6167,-0.2785 0.011,-0.1313 0.041,-0.4625 0.066,-0.7361 l 0.046,-0.4973 h 0.6303 0.6303 v -0.4731 c 0,-0.4378 0.016,-0.481 0.2188,-0.5777 0.2081,-0.099 0.2214,-0.1397 0.2701,-0.82 0.028,-0.3935 0.055,-1.2989 0.06,-2.012 l 0.01,-1.2964 -0.6167,0.023 -0.6167,0.023 -0.024,0.4885 -0.023,0.4884 -0.8363,0.031 c -0.8794,0.033 -0.9831,0.078 -0.9857,0.4326 0,0.1522 -0.06,0.1719 -0.6577,0.2184 -0.3611,0.028 -0.8606,0.051 -1.1101,0.052 -0.349,4e-4 -0.4716,0.033 -0.5315,0.1397 -0.072,0.1281 -0.3158,0.1411 -3.0443,0.162 -2.8776,0.022 -2.9729,0.018 -3.1855,-0.1392 -0.1483,-0.1097 -0.3423,-0.1622 -0.6003,-0.1625 -0.2097,-2e-4 -0.6787,-0.024 -1.0422,-0.052 -0.6517,-0.051 -0.6616,-0.055 -0.7075,-0.2843 -0.062,-0.3093 -0.2733,-0.3795 -1.1434,-0.3795 h -0.711 v -0.5173 -0.5172 h -0.5969 -0.5968 v 1.8237 c 0,1.0031 0.023,1.8832 0.051,1.9558 0.028,0.073 0.1335,0.1634 0.2347,0.2019 0.1586,0.06 0.1873,0.1336 0.208,0.5311 l 0.024,0.4611 0.6565,0.023 0.6565,0.023 v 0.8288 0.8289 l 0.5769,0.023 0.577,0.023 0.023,0.5769 0.023,0.5769 h 0.6299 0.6299 l 0.023,0.6566 0.023,0.6565 0.7758,0.023 0.7759,0.023 v 0.5541 0.5542 h 2.6261 2.626 z m -14.5257,0.37 c 0.1021,-0.075 0.1581,-0.2417 0.1834,-0.5475 l 0.036,-0.44 0.3602,-0.049 c 0.1981,-0.027 0.5879,-0.049 0.8663,-0.049 h 0.5061 v -0.6245 -0.6245 l -0.8479,-0.052 c -0.4664,-0.028 -1.2184,-0.052 -1.6711,-0.052 h -0.8232 v -0.4623 c 0,-0.5508 -0.1045,-0.7142 -0.4775,-0.7468 -0.25,-0.022 -0.2785,-0.048 -0.2785,-0.2595 0,-0.2099 0.034,-0.2423 0.315,-0.3007 0.3794,-0.079 0.4382,-0.1587 0.4398,-0.5982 v -0.3382 h 1.1538 1.1539 v -0.5172 -0.5173 h 0.7162 0.7162 v -1.3926 -1.3926 h -0.5769 c -0.6241,0 -0.7053,0.029 -0.8423,0.2896 -0.079,0.1503 -0.1843,0.1786 -0.8475,0.2283 l -0.7572,0.057 v 0.5058 0.5058 l -1.2534,0.022 -1.2533,0.022 0.028,1.0146 0.028,1.0146 h -0.7543 c -0.9665,0 -0.9732,0.01 -0.9004,0.9707 0.03,0.4006 0.073,0.7579 0.096,0.794 0.022,0.036 0.2533,0.066 0.5134,0.066 h 0.4727 v 0.5969 0.5968 h 0.5969 0.5968 v 0.5968 0.5968 h 0.756 0.756 v 0.2277 c 0,0.1252 0.023,0.3937 0.051,0.5968 l 0.051,0.3692 h 0.3718 c 0.2045,0 0.438,-0.048 0.5188,-0.1074 z m 24.7912,-0.4864 v -0.5938 l 0.7361,-0.023 0.7361,-0.023 v -0.5771 -0.5771 l 0.5769,2e-4 0.5769,10e-5 v -0.5968 -0.5968 h 0.5173 0.5172 v -0.9152 -0.9151 h -0.7162 -0.7162 v -0.9947 -0.9947 h -1.1473 c -0.6311,0 -1.204,-0.022 -1.2733,-0.048 -0.096,-0.037 -0.1261,-0.1656 -0.127,-0.5372 -7e-4,-0.2688 -0.028,-0.5291 -0.06,-0.5783 -0.032,-0.049 -0.3808,-0.1097 -0.7747,-0.1344 -0.3939,-0.025 -0.7251,-0.047 -0.7361,-0.05 -0.011,0 -0.02,-0.058 -0.02,-0.1227 0,-0.1609 -0.3297,-0.2307 -0.8175,-0.1729 -0.637,0.075 -0.6353,0.071 -0.5696,1.5927 l 0.057,1.3241 h 0.7048 0.7048 v 0.4377 0.4376 h 1.1099 1.1099 l 0.024,0.4178 0.024,0.4178 0.3353,0.074 c 0.3504,0.078 0.4563,0.2051 0.3773,0.4541 -0.033,0.104 -0.1234,0.1479 -0.3042,0.1479 -0.3687,0 -0.4482,0.1229 -0.4482,0.6923 v 0.5014 h -1.6314 -1.6313 v 0.6764 0.6764 h 0.8356 0.8355 v 0.5968 0.5968 h 0.5969 0.5968 z m -23.8989,-3.1145 c 0.076,-0.199 -0.1234,-0.268 -0.7802,-0.2693 -0.4355,-6e-4 -0.6342,0.032 -0.7032,0.1147 -0.1779,0.2144 -0.01,0.282 0.7205,0.282 0.5813,0 0.7231,-0.024 0.7629,-0.1274 z m 23.4753,0 c 0.074,-0.1929 -0.1197,-0.2681 -0.6905,-0.2681 -0.5708,0 -0.7645,0.075 -0.6905,0.2681 0.039,0.1022 0.1756,0.1274 0.6905,0.1274 0.5149,0 0.6513,-0.025 0.6905,-0.1274 z m -20.6246,-0.02 c 0.2936,-0.054 0.3024,-0.063 0.1136,-0.1128 -0.1126,-0.03 -0.4528,-0.2738 -0.756,-0.5427 -0.9467,-0.8394 -1.0874,-0.8234 -1.1355,0.1292 l -0.03,0.5943 h 0.7448 c 0.4096,0 0.888,-0.031 1.0631,-0.063 z m 18.0538,-0.8811 c -0.047,-0.2333 -0.073,-0.251 -0.3322,-0.2288 -0.2308,0.02 -0.3265,0.088 -0.5309,0.379 -0.2957,0.2425 -0.5641,0.5197 -0.8769,0.7396 0.6344,0.051 1.1399,0.049 1.7905,0.059 0.015,-0.3179 -0.02,-0.6357 -0.051,-0.9488 z m -7.669,-5.2181 v -0.5173 h 2.0292 2.0293 v -0.507 -0.5069 l 0.6565,-0.053 c 0.3611,-0.029 0.8624,-0.074 1.1141,-0.1001 l 0.4575,-0.047 v -5.6795 -5.6795 h -0.9947 -0.9947 v -0.6366 -0.6367 l -0.6963,-0.01 h -0.8952 c -0.3843,0.024 -0.5004,-0.1893 -0.551,-1.0099 0,-0.078 -0.9457,-0.1 -4.4226,-0.1 h -4.4166 l -0.01,0.4576 c -0.01,0.2517 0,0.4985 0,0.5485 0.01,0.05 -0.034,0.089 -0.09,0.087 -0.056,0 -0.5396,0 -1.0758,0.01 l -0.9748,0.013 v 0.6367 0.6366 h -0.9631 -0.963 l 0.042,5.4311 c 0.023,2.9872 0.067,5.5476 0.097,5.6898 l 0.054,0.2586 h 0.9379 0.9378 l 0.055,0.5458 0.055,0.5458 0.6496,0.051 c 0.3572,0.028 1.2852,0.051 2.062,0.051 l 1.4125,5e-4 v 0.5172 0.5173 h 2.2282 2.2282 z m -11.7774,-6.6885 v -3.943 l -0.4576,0.024 -0.4575,0.024 -0.021,3.9192 -0.021,3.9192 h 0.4782 0.4782 z m 19.9739,0 v -3.943 l -0.4576,0.024 -0.4576,0.024 -0.021,3.9192 -0.021,3.9192 h 0.4782 0.4782 z m -21.9646,3.0294 c 0.071,-0.086 0.1095,-0.8809 0.1411,-2.9443 l 0.043,-2.8265 h -0.5786 -0.5787 l 0.048,1.0544 c 0.026,0.5799 0.07,1.6989 0.096,2.4867 0.049,1.4363 0.1271,2.0533 0.2861,2.2448 0.1151,0.1386 0.4215,0.1301 0.542,-0.015 z m 23.8227,-0.5784 c 0.028,-0.383 0.075,-1.708 0.1042,-2.9444 l 0.053,-2.248 h -0.5698 -0.5699 v 2.9443 2.9444 h 0.4657 0.4656 z m -25.6716,-1.025 c 0.1774,-0.048 0.179,-0.061 0.179,-1.5109 v -1.4629 h -0.5391 -0.5392 l 0.023,0.8555 c 0.051,1.9007 0.061,2.0152 0.1817,2.0916 0.1347,0.085 0.4335,0.097 0.6946,0.027 z m 27.6332,-1.4618 v -1.512 h -0.3827 c -0.6373,0 -0.6884,0.081 -0.6824,1.0863 0,0.4749 0.032,1.1051 0.064,1.4005 l 0.059,0.5371 h 0.4712 0.4711 z m -11.857,-10.4644 v -0.5969 h -2.3078 -2.3077 v 0.5969 0.5968 h 2.3077 2.3078 z"
           id="path4594"
           sodipodi:nodetypes="ccccsccccccccccccsscccccscccccccscsccccsccccsscccscsccccsccccccccccccccscscsccccccccccccccsscccscccscccsccccccsccccccccccccccsccsccscccccccccscccccccccccsccccccccccccccccccscccccsccsccccccccccccccccccccccccsccccscscscccccccccccssccccccccsccscccccccccsccsccccccccccccccccccccscccccsccccccccccccssscccccccccccccccsccscsccccscsccccccccccccccccccccccccccsccccccccccccccccccccccccccccccccccccccccccccccccccscccccccccccccscccccccccsccccccccccccccc" />
      </g>
    </g>
    <g
       id="g7485"
       transform="matrix(0.02645833,0,0,0.02645833,-169.80806,164.79426)">
      <path
         style="fill:#333333;stroke-width:37.7952"
         d="m 907.64633,-2099.6269 h -54.6785 l -14.7288,-16.2746 -14.72503,-16.2709 v -94.4617 -94.4618 l 42.27023,-43.7367 42.2627,-43.7291 11.4746,-14.6003 11.4709,-14.6003 h 57.9062 57.89847 l 15.1597,26.6381 15.1559,26.6381 h 11.3462 11.3423 l 7.9975,-21.0293 7.9937,-21.0331 14.7591,-5.6617 14.7552,-5.6655 h 150.036 150.0434 l 13.8482,19.7745 13.8558,19.782 13.8482,-19.782 13.8519,-19.7745 h 163.0224 163.0261 l 10.7037,12.9033 10.7112,12.8995 -2.9481,67.2038 -2.9102,67.2038 20.0201,-0.019 20.0202,-0.023 v -66.1002 -66.1001 l 13.5307,-13.5307 13.5269,-13.527 319.5402,-0.4535 319.5364,-0.4535 13.9654,13.9653 13.9653,13.9654 v 59.8715 59.8715 l -10.6771,10.6809 -10.6772,10.6772 h -15.103 -15.1068 l -3.137,75.9609 -3.137,75.961 -13.3455,8.81 -13.3493,8.8063 -62.2866,-4.3162 -62.2866,-4.3162 -13.3493,0.5291 -13.3455,0.5292 -415.442,3.7417 -415.4381,3.7417 -18.3534,-19.6989 -18.3458,-19.6951 -18.1455,19.4721 -18.1455,19.4759 H 1227.485 1018.137 l -18.16817,-9.7209 -18.1644,-9.7247 -9.7247,9.7247 -9.7248,9.7209 z m 0.3779,-53.3896 h 31.1433 v -27.1597 -27.1635 l 47.2101,0.6426 46.83207,-0.378 2.2678,30.0737 0.7937,21.4866 30.0094,0.7559 h 28.286 l 0.015,-74.0409 -0.378,-76.1688 -19.3285,2.1543 -20.0201,-2.8724 v -16.5582 l -1.0583,-19.4872 h -18.9581 l -20.0202,-2.8346 -2.8724,-20.024 -2.8347,-20.0201 h -26.07487 -26.0787 v 22.25 22.2426 h -17.7941 -17.7977 v 17.7978 17.7977 h -22.2463 -22.2463 v 75.6322 75.6397 z m 75.6359,-106.7792 h -44.4926 v -13.3493 -13.3493 h 44.4926 44.49257 v 13.3493 13.3493 z m 244.70177,106.7792 h 75.6359 v -30.72 -30.72 l -55.6158,-2.6457 -55.6157,-2.6456 v -48.9411 -48.9412 l 55.6157,-2.6456 55.6158,-2.6457 v -30.72 -30.72 h -71.1874 -71.1874 v 16.7622 16.7547 l -16.1235,0.9448 h -18.0888 l -1.3607,85.2737 v 83.6448 l 12.9412,0.4913 12.2532,-0.9827 1.3606,16.1953 v 12.4006 z m 151.268,0 h 31.1471 l 0.6047,-73.4136 0.8693,-69.5622 19.234,-0.3779 -0.3779,36.5896 h 7.5401 7.5364 v 31.1395 31.1471 h 22.2463 22.2463 v -31.1471 -31.1395 h 13.3455 13.3493 v -17.794 -17.8016 h 8.897 8.897 v 71.1874 71.1874 h 31.1471 31.1433 v -102.3345 -102.3269 h -8.9007 -8.8971 v -13.3455 -13.3493 h -22.2463 -22.2463 v 22.2463 22.2425 h -22.2425 -22.2463 v 22.2501 22.2425 h -17.7978 -17.7978 v -17.1779 -25.7689 h -21.6302 l -20.3679,0.378 -0.7937,-21.6983 v -25.4022 l -24.6387,0.9449 h -21.6567 v 13.3455 13.3493 h -8.897 -8.9008 v 102.3269 102.3345 z m 333.687,0 h 80.0844 v -31.1433 -31.1471 h -48.9411 -48.9374 v -12.7559 l 0.9071,-16.6753 27.7531,-1.4362 24.4687,-0.378 v -24.6349 l 1.6252,-24.3326 h -27.2845 -27.2844 v -13.3493 -13.3455 h 53.9528 46.7187 l -0.3779,-29.0268 0.7181,-33.7852 -82.4806,0.378 -80.9991,-0.378 v 116.0126 116.0126 z m 151.2718,0 h 26.6948 v -31.1433 -31.1471 h -26.6948 -26.6948 v 31.1471 31.1433 z m 146.8195,0 h 75.6359 v -12.3969 -12.393 l 14.2148,0.4157 h 12.8429 l -0.378,-46.6469 v -35.8715 h -13.3493 -13.3455 v -12.3969 -21.6869 l 12.7295,-0.6047 13.8746,-0.378 v -27.2541 -27.2542 c -10.2047,-0.9449 -16.2142,-0.9827 -26.9934,-2.0032 l 0.378,-20.6211 v -12.3968 h -75.6359 -75.6322 v 115.6762 115.68 z m 13.3493,-62.2904 h -26.6948 v -13.3493 -13.3455 h 26.6948 26.6948 v 13.3455 13.3493 z m -1.9275,-78.7918 h -24.7635 v -13.9389 -13.9389 h 27.4356 l 22.817,-1.3228 c -0.9449,10.6015 0.5291,19.1206 -0.6425,28.2708 z m 211.0374,141.0822 h 66.7389 v -13.3493 -13.3455 h 13.3456 13.3493 v -88.9852 -88.9814 h -13.3493 -13.3456 v -13.3455 -13.3493 h -133.474 v 12.3099 l -0.5291,20.4019 c -12.1285,1.7386 -21.8986,0.3779 -35.0513,1.2094 v 81.7474 l 1.8897,90.1569 16.1273,0.3779 17.571,0.6426 v 12.3099 12.3099 z m -4.8907,-62.2904 -33.4185,1.3984 v -52.5581 -55.3701 l 35.4822,-1.0582 33.8796,-0.378 v 53.9263 53.9263 z m 209.5522,62.2904 h 31.1433 v -84.5329 -84.5367 h 26.6948 26.6948 v -31.4759 -31.4797 h -82.1103 l -89.3896,0.8693 0.4536,33.2523 0.8315,28.9171 h 27.2579 27.2618 v 84.5329 84.5367 z"
         id="path316530-4"
         sodipodi:nodetypes="ccccccccccccccccccccccccccccccccccccccccccccccccccccccccccccccccccccccccccccccccccccccccccccccccccccccccccccccccccccccccccccccccccccccccccccccccccccccccccccccccccccccccccccccccccccccccccccccccccccccccccccccccccccccccccccccccccccccccccccccccccccccccccccccccccccccccccccccccccccccccccccccccccccccccccccccccccccccccccc" />
      <path
         style="fill:#ffffff;fill-opacity:1;stroke-width:24.61;stroke-linecap:round;stroke-linejoin:round;stroke-miterlimit:1.6"
         d="m 879.13813,-2229.3933 v -75.1181 h 22.0174 22.0173 v -16.7184 -16.7185 l 17.4844,-0.766 17.4844,-0.766 0.7523,-21.3698 0.7523,-21.3698 h 24.19 24.18997 l 2.7294,18.39 c 1.5012,10.1144 3.3489,19.0093 4.1059,19.7663 0.757,0.757 9.5774,1.9632 19.6008,2.6804 l 18.2245,1.3039 v 17.6252 17.6252 l 11.7997,1.7695 c 6.4899,0.973 15.8149,1.1179 20.7223,0.322 l 8.9224,-1.4479 v 73.6601 73.6601 h -28.493 -28.4931 v -9.9811 c 0,-5.4896 -0.7489,-17.1459 -1.6642,-25.9028 l -1.6641,-15.9216 h -47.55117 -47.5511 v 27.1979 27.1979 h -29.7882 -29.7883 z m 149.71787,-43.3872 -0.7768,-14.8941 -44.68227,-0.709 -44.6823,-0.709 v 15.6028 15.6028 h 45.4591 45.45917 z"
         id="path3720" />
      <path
         style="fill:#ffffff;fill-opacity:1;stroke-width:24.61;stroke-linecap:round;stroke-linejoin:round;stroke-miterlimit:1.6"
         d="m 1153.1955,-2167.8741 -0.7829,-13.599 -12.3038,-0.79 -12.3038,-0.79 v -82.6287 -82.6286 l 17.4843,-0.766 17.4844,-0.766 0.7712,-16.1892 0.7712,-16.1893 h 69.8988 69.8988 l -0.732,29.1407 -0.732,29.1406 -55.0434,2.2845 -55.0435,2.2844 v 49.9058 49.9059 l 17.4844,1.5051 c 9.6164,0.828 34.6774,2.2527 55.691,3.1664 l 38.2066,1.6611 v 29.4751 29.475 h -74.9827 -74.9828 z"
         id="path3759" />
      <path
         style="fill:#ffffff;fill-opacity:1;stroke-width:24.61;stroke-linecap:round;stroke-linejoin:round;stroke-miterlimit:1.6"
         d="m 1350.569,-2255.2961 v -101.0209 h 7.7708 c 7.5982,0 7.7708,-0.288 7.7708,-12.9514 v -12.9514 l 16.1893,-0.04 c 8.9041,-0.02 18.8119,-0.738 22.0174,-1.5973 5.4725,-1.4666 5.8281,-0.775 5.8281,11.3301 0,7.0906 0.714,18.0997 1.5862,24.4646 l 1.5862,11.5725 20.4312,-1.1827 20.4311,-1.1827 v 22.3501 22.3502 h 19.4271 19.4271 v -22.0173 -22.0174 h 22.0174 22.0174 v -22.0174 -22.0174 h 20.7222 20.7223 v 12.9514 12.9514 h 9.0659 9.066 v 101.0209 101.0209 h -29.7882 -29.7882 v -71.2327 -71.2326 h -10.3611 -10.3611 v 18.1319 18.132 h -12.9514 -12.9514 v 31.0833 31.0834 h -22.0174 -22.0174 v -31.0834 -31.0833 h -6.4757 c -6.2907,0 -6.4757,-0.518 -6.4757,-18.132 v -18.1319 h -11.6562 -11.6563 v 71.2326 71.2327 h -29.7882 -29.7882 z"
         id="path3798" />
      <path
         style="fill:#ffffff;fill-opacity:1;stroke-width:24.61;stroke-linecap:round;stroke-linejoin:round;stroke-miterlimit:1.6"
         d="m 1635.4997,-2269.2506 v -114.9755 l 80.2987,-0.03 80.2986,-0.03 v 30.8174 30.8175 h -50.5104 -50.5105 v 14.2465 14.2465 h 27.5369 27.5368 l -1.6055,9.7136 c -0.883,5.3424 -1.6184,15.8331 -1.6341,23.3125 l -0.03,13.599 -20.0746,0.04 c -31.1678,0.06 -31.731,0.382 -31.731,18.3987 v 15.2396 h 49.2153 49.2154 v 29.7882 29.7882 h -79.0036 -79.0035 z"
         id="path3837" />
      <path
         style="fill:#ffffff;fill-opacity:1;stroke-width:24.61;stroke-linecap:round;stroke-linejoin:round;stroke-miterlimit:1.6"
         d="m 1840.1318,-2184.0634 v -29.7882 h 24.6076 24.6077 v 29.7882 29.7882 h -24.6077 -24.6076 z"
         id="path3876" />
      <path
         style="fill:#ffffff;fill-opacity:1;stroke-width:24.61;stroke-linecap:round;stroke-linejoin:round;stroke-miterlimit:1.6"
         d="m 1935.9721,-2268.2475 v -113.9723 h 75.1181 75.1181 v 15.2396 c 0,16.5336 1.8178,18.3145 18.7796,18.3987 l 7.1232,0.04 v 25.9028 25.9028 h -8.8541 c -15.9639,0 -17.0487,1.3361 -17.0487,20.9993 v 17.8548 h 12.9514 12.9514 v 40.4789 40.4789 l -12.9514,-1.2444 -12.9514,-1.2445 v 12.5712 12.5711 h -75.1181 -75.1181 z m 116.5626,40.1494 v -14.2466 h -27.1979 -27.198 v 14.2466 14.2465 h 27.198 27.1979 z m -2.5903,-81.9176 v -15.8655 l -8.0946,1.6189 c -4.4521,0.89 -16.1083,1.619 -25.9028,1.619 h -17.8082 v 14.2465 14.2465 h 25.9028 25.9028 z"
         id="path3915" />
      <path
         style="fill:#ffffff;fill-opacity:1;stroke-width:24.61;stroke-linecap:round;stroke-linejoin:round;stroke-miterlimit:1.6"
         d="m 2169.0973,-2165.6543 c 0,-13.093 -2.0259,-14.5237 -20.5651,-14.5237 h -12.3706 l -1.6641,-15.9216 c -0.915,-8.7569 -1.6641,-46.6398 -1.6641,-84.1841 v -68.2624 h 11.4876 c 6.3182,0 14.4776,-1.1368 18.1319,-2.5262 6.0257,-2.2909 6.6444,-3.8587 6.6444,-16.8368 v -14.3107 h 64.757 64.7569 v 12.9514 12.9514 h 14.2466 14.2465 v 88.0695 88.0695 h -14.2465 -14.2466 v 12.9514 12.9514 h -64.7569 -64.757 z m 95.8403,-103.8883 v -55.691 h -11.2583 c -6.1921,0 -21.928,0.757 -34.9688,1.683 l -23.7104,1.683 v 54.008 54.008 h 34.9687 34.9688 z"
         id="path3954" />
      <path
         style="fill:#ffffff;fill-opacity:1;stroke-width:24.61;stroke-linecap:round;stroke-linejoin:round;stroke-miterlimit:1.6"
         d="m 2407.403,-2238.4593 v -84.184 h -27.198 -27.1979 v -29.3827 -29.3827 l 40.7969,-1.692 c 22.4383,-0.931 60.3211,-1.696 84.1841,-1.7007 l 43.3872,-0.01 v 31.0833 31.0834 h -25.9028 -25.9028 v 84.184 84.1841 h -31.0834 -31.0833 z"
         id="path3993" />
    </g>
  </g>
</svg>
